<svg width="1440" height="1024" viewBox="0 0 1440 1024" fill="none" xmlns="http://www.w3.org/2000/svg">
<rect width="1440" height="1024" fill="#1E1E1E"/>
<rect width="1440" height="1024" fill="white"/>
<path fill-rule="evenodd" clip-rule="evenodd" d="M1421 20H19V1004H1421V20ZM45 48H1394V975H45V48ZM38 41H45H1394H1401V48V975V982H1394H45H38V975V48V41Z" fill="#799692"/>
<path d="M323.598 628.082C323.207 627.105 323.012 623.59 323.012 617.535C323.012 611.48 323.012 603.863 323.012 594.684C323.207 585.504 323.402 575.25 323.598 563.922C323.988 552.398 324.281 540.777 324.477 529.059C324.867 517.145 325.258 505.621 325.648 494.488C326.039 483.16 326.332 473.102 326.527 464.312C326.918 455.523 327.211 448.395 327.406 442.926C327.602 437.262 327.797 434.234 327.992 433.844C328.188 433.062 329.066 431.109 330.629 427.984C332.191 424.859 333.949 421.637 335.902 418.316C338.051 414.801 340.199 411.773 342.348 409.234C344.496 406.5 346.352 405.23 347.914 405.426C348.5 405.621 348.988 409.527 349.379 417.145C349.965 424.566 350.453 434.137 350.844 445.855C351.43 457.574 351.82 470.562 352.016 484.82C352.406 498.883 352.699 512.652 352.895 526.129C353.285 539.41 353.578 551.52 353.773 562.457C353.969 573.199 354.164 581.109 354.359 586.188C360.609 586.773 366.859 587.262 373.109 587.652C379.555 588.043 385.316 588.531 390.395 589.117C395.473 589.508 399.574 589.898 402.699 590.289C406.02 590.68 407.777 590.973 407.973 591.168C408.559 591.949 409.34 593.805 410.316 596.734C411.488 599.469 412.562 602.496 413.539 605.816C414.516 608.941 415.199 611.871 415.59 614.605C416.176 617.34 416.078 619 415.297 619.586C392.836 623.688 375.453 626.422 363.148 627.789C350.844 629.156 341.762 629.84 335.902 629.84C329.066 629.84 324.965 629.254 323.598 628.082ZM478.578 458.746C479.945 459.918 481.215 462.164 482.387 465.484C483.754 468.805 484.926 472.809 485.902 477.496C486.879 482.184 487.758 487.262 488.539 492.73C489.32 498.199 490.004 503.57 490.59 508.844C491.176 514.117 491.566 519.098 491.762 523.785C492.152 528.277 492.445 531.988 492.641 534.918C492.836 538.434 492.934 542.145 492.934 546.051C493.129 549.762 493.129 553.375 492.934 556.891C492.934 560.211 492.738 563.238 492.348 565.973C492.152 568.707 491.762 570.758 491.176 572.125C490.004 575.055 487.953 577.105 485.023 578.277C482.289 579.254 479.164 579.938 475.648 580.328C473.891 580.523 470.863 580.621 466.566 580.621C462.465 580.426 457.973 580.23 453.09 580.035C448.402 579.645 443.91 579.254 439.613 578.863C435.316 578.473 432.094 578.082 429.945 577.691C425.648 576.715 422.523 575.445 420.57 573.883C418.812 572.32 417.055 570.074 415.297 567.145C414.711 565.973 414.223 563.043 413.832 558.355C413.441 553.473 413.148 547.711 412.953 541.07C412.953 534.234 413.051 526.91 413.246 519.098C413.441 511.285 413.734 503.863 414.125 496.832C414.711 489.801 415.297 483.648 415.883 478.375C416.664 473.102 417.641 469.586 418.812 467.828C420.766 465.094 424.086 462.555 428.773 460.211C433.656 457.867 438.051 456.012 441.957 454.645C443.91 454.059 446.449 453.668 449.574 453.473C452.895 453.082 456.312 453.082 459.828 453.473C463.539 453.668 467.055 454.254 470.375 455.23C473.695 456.012 476.43 457.184 478.578 458.746ZM462.172 549.566C462.562 548.785 462.953 546.441 463.344 542.535C463.93 538.434 464.32 533.551 464.516 527.887C464.906 522.223 465.102 516.168 465.102 509.723C465.297 503.277 465.395 497.32 465.395 491.852C465.395 486.383 465.199 481.793 464.809 478.082C464.418 474.176 463.93 471.93 463.344 471.344C462.367 470.562 460.902 470.27 458.949 470.465C457.191 470.465 455.336 470.758 453.383 471.344C451.43 471.734 449.672 472.32 448.109 473.102C446.547 473.688 445.473 474.273 444.887 474.859C442.348 477.008 440.98 480.523 440.785 485.406C440.785 486.773 440.59 490.68 440.199 497.125C440.004 503.375 439.906 510.211 439.906 517.633C439.906 524.859 440.004 531.598 440.199 537.848C440.59 544.098 441.273 547.906 442.25 549.273C443.227 550.641 444.594 551.715 446.352 552.496C448.305 553.082 450.258 553.375 452.211 553.375C454.359 553.375 456.312 553.082 458.07 552.496C460.023 551.715 461.391 550.738 462.172 549.566ZM585.219 464.898C586.391 466.266 587.465 467.73 588.441 469.293C589.418 470.66 590.297 472.613 591.078 475.152C591.859 477.496 592.445 480.621 592.836 484.527C593.422 488.434 593.715 493.512 593.715 499.762C593.715 509.723 593.422 519.781 592.836 529.938C592.445 539.898 592.055 548.688 591.664 556.305C591.469 563.141 591.273 569.488 591.078 575.348C590.883 581.207 590.688 586.383 590.492 590.875C590.297 595.172 590.004 598.59 589.613 601.129C589.418 603.668 589.223 605.035 589.027 605.23C588.246 605.816 586.977 605.621 585.219 604.645C583.656 603.473 581.898 602.008 579.945 600.25C578.188 598.492 576.527 596.637 574.965 594.684C573.402 592.73 572.426 591.168 572.035 589.996C572.035 589.02 571.742 586.188 571.156 581.5C566.469 584.234 561.293 586.188 555.629 587.359C549.965 588.336 544.301 588.727 538.637 588.531C533.168 588.141 528.09 587.066 523.402 585.309C518.715 583.551 515.199 581.207 512.855 578.277C511.879 577.105 511 575.348 510.219 573.004C509.633 570.66 509.047 568.023 508.461 565.094C508.07 561.969 507.68 558.746 507.289 555.426C506.898 551.91 506.605 548.688 506.41 545.758C506.02 538.141 506.996 531.598 509.34 526.129C511.684 520.465 515.98 516.266 522.23 513.531C524.965 512.359 528.578 511.773 533.07 511.773C537.758 511.578 542.348 511.773 546.84 512.359C551.527 512.75 555.727 513.336 559.438 514.117C563.148 514.703 565.492 515.191 566.469 515.582C565.688 505.621 565.102 497.027 564.711 489.801C564.32 482.379 563.539 477.594 562.367 475.445C561.391 474.078 560.219 472.711 558.852 471.344C557.68 470.367 556.117 469.293 554.164 468.121C552.211 466.949 549.867 466.07 547.133 465.484C544.984 465.094 543.031 465.973 541.273 468.121C539.711 470.074 538.246 473.59 536.879 478.668C535.707 483.551 535.023 491.07 534.828 501.227C527.992 501.422 522.719 501.422 519.008 501.227C515.492 500.836 512.855 500.445 511.098 500.055C508.949 499.664 507.68 499.176 507.289 498.59C506.898 497.809 507.094 494.977 507.875 490.094C508.656 485.016 509.73 479.547 511.098 473.688C512.66 467.828 514.418 462.262 516.371 456.988C518.52 451.715 520.766 448.395 523.109 447.027C527.797 444.293 533.363 443.316 539.809 444.098C546.449 444.879 552.895 446.539 559.145 449.078C565.395 451.617 570.961 454.449 575.844 457.574C580.727 460.699 583.852 463.141 585.219 464.898ZM567.055 550.445C567.055 549.469 567.152 548.199 567.348 546.637C567.543 544.879 567.641 543.121 567.641 541.363C567.641 539.605 567.543 537.945 567.348 536.383C567.348 534.82 567.152 533.648 566.762 532.867C566.176 531.695 564.418 530.719 561.488 529.938C558.754 529.156 555.629 528.668 552.113 528.473C548.598 528.082 545.277 527.984 542.152 528.18C539.027 528.18 536.879 528.57 535.707 529.352C534.145 530.328 532.973 531.695 532.191 533.453C531.605 535.211 531.215 537.945 531.02 541.656C531.02 543.414 531.117 545.27 531.312 547.223C531.508 549.176 531.703 551.129 531.898 553.082C532.289 554.84 532.68 556.402 533.07 557.77C533.656 559.137 534.242 560.016 534.828 560.406C536.195 561.383 538.539 562.262 541.859 563.043C545.375 563.629 548.891 563.824 552.406 563.629C555.922 563.238 559.145 562.066 562.074 560.113C565.004 558.16 566.664 554.938 567.055 550.445ZM694.203 425.055C694.789 429.742 694.984 439.117 694.789 453.18C694.789 459.234 694.594 466.559 694.203 475.152C694.008 483.746 693.617 494.098 693.031 506.207C692.445 518.121 691.664 531.988 690.688 547.809C689.906 563.434 688.832 581.207 687.465 601.129C687.074 603.082 686.195 605.23 684.828 607.574C683.656 609.918 682.289 612.066 680.727 614.02C679.164 615.973 677.504 617.633 675.746 619C673.988 620.172 672.426 620.562 671.059 620.172C670.668 619.977 670.18 618.414 669.594 615.484C669.203 612.555 668.812 608.453 668.422 603.18C659.633 607.086 651.332 609.723 643.52 611.09C635.707 612.457 629.359 611.578 624.477 608.453C622.523 607.281 620.57 605.23 618.617 602.301C616.859 599.176 615.199 595.562 613.637 591.461C612.074 587.359 610.805 583.062 609.828 578.57C608.852 573.883 608.363 569.488 608.363 565.387C608.363 562.457 608.559 558.551 608.949 553.668C609.34 548.785 609.828 543.512 610.414 537.848C611 531.988 611.684 526.129 612.465 520.27C613.246 514.215 614.027 508.648 614.809 503.57C615.59 498.492 616.273 494.195 616.859 490.68C617.445 487.164 617.934 485.016 618.324 484.234C618.715 481.891 619.398 479.938 620.375 478.375C621.547 476.812 622.523 475.641 623.305 474.859C625.258 473.297 628.09 472.125 631.801 471.344C635.707 470.562 639.711 470.074 643.812 469.879C648.109 469.684 652.113 469.781 655.824 470.172C659.535 470.367 662.27 470.758 664.027 471.344H664.613C664.223 447.125 664.223 428.473 664.613 415.387C665.004 402.301 665.785 395.27 666.957 394.293C667.738 393.707 669.496 394.195 672.23 395.758C674.965 397.32 677.797 399.566 680.727 402.496C683.852 405.426 686.684 408.941 689.223 413.043C691.957 416.949 693.617 420.953 694.203 425.055ZM649.672 589.117C652.406 588.531 654.848 587.848 656.996 587.066C659.34 586.09 661.293 585.211 662.855 584.43C664.613 583.648 666.078 582.672 667.25 581.5C667.055 576.422 666.859 570.758 666.664 564.508C666.469 558.062 666.273 551.422 666.078 544.586C665.883 537.75 665.688 530.816 665.492 523.785C665.297 516.559 665.102 509.625 664.906 502.984C664.906 500.836 664.516 498.98 663.734 497.418C663.148 495.855 662.367 494.586 661.391 493.609C660.805 493.219 659.633 492.73 657.875 492.145C656.117 491.363 654.066 490.777 651.723 490.387C649.574 489.801 647.426 489.508 645.277 489.508C643.324 489.508 641.957 489.898 641.176 490.68C640.785 490.875 640.395 492.828 640.004 496.539C639.809 500.055 639.516 504.547 639.125 510.016C638.93 515.289 638.637 521.051 638.246 527.301C638.051 533.551 637.855 539.41 637.66 544.879C637.465 550.348 637.27 555.035 637.074 558.941C636.879 562.848 636.781 564.996 636.781 565.387C636.781 568.707 637.172 571.832 637.953 574.762C638.93 577.691 640.102 580.328 641.469 582.672C642.836 584.82 644.301 586.578 645.863 587.945C647.426 589.117 648.695 589.508 649.672 589.117ZM740.785 493.023C741.176 494 741.371 497.125 741.371 502.398C741.566 507.477 741.566 513.727 741.371 521.148C741.371 528.375 741.176 536.188 740.785 544.586C740.395 552.789 739.906 560.602 739.32 568.023C738.93 575.25 738.441 581.5 737.855 586.773C737.27 591.852 736.684 594.879 736.098 595.855C734.34 598.59 731.703 600.348 728.188 601.129C724.672 601.715 722.133 601.812 720.57 601.422C719.789 601.422 718.91 599.176 717.934 594.684C717.152 590.191 716.371 584.527 715.59 577.691C714.809 570.855 714.125 563.434 713.539 555.426C712.953 547.418 712.465 539.801 712.074 532.574C711.684 525.152 711.488 518.707 711.488 513.238C711.488 507.77 711.684 504.254 712.074 502.691C712.66 500.152 714.32 497.906 717.055 495.953C719.984 494 723.012 492.535 726.137 491.559C729.457 490.582 732.484 490.191 735.219 490.387C738.148 490.387 740.004 491.266 740.785 493.023ZM742.25 445.562C743.031 447.125 743.324 449.273 743.129 452.008C743.129 454.742 742.836 457.574 742.25 460.504C741.664 463.434 740.883 466.266 739.906 469C738.93 471.734 737.953 473.883 736.977 475.445C735.023 478.18 732.094 479.938 728.188 480.719C724.477 481.305 721.742 481.402 719.984 481.012C718.617 480.816 717.25 479.938 715.883 478.375C714.516 476.617 713.344 474.566 712.367 472.223C711.391 469.684 710.707 466.949 710.316 464.02C709.926 461.09 710.023 458.355 710.609 455.816C711.195 453.277 713.051 451.031 716.176 449.078C719.301 446.93 722.621 445.367 726.137 444.391C729.652 443.219 732.973 442.73 736.098 442.926C739.223 442.926 741.273 443.805 742.25 445.562ZM846.84 496.246C846.84 499.371 846.449 503.863 845.668 509.723C845.082 515.582 844.203 522.027 843.031 529.059C841.859 535.895 840.59 543.023 839.223 550.445C838.051 557.672 836.781 564.312 835.414 570.367C834.242 576.422 833.168 581.5 832.191 585.602C831.41 589.703 830.922 591.949 830.727 592.34C830.336 592.926 829.262 593.316 827.504 593.512C825.941 593.512 824.086 593.316 821.938 592.926C819.984 592.535 818.129 591.949 816.371 591.168C814.809 590.387 813.832 589.41 813.441 588.238C813.246 587.457 813.148 584.723 813.148 580.035C813.344 575.348 813.539 569.781 813.734 563.336C814.125 556.695 814.516 549.664 814.906 542.242C815.297 534.625 815.688 527.594 816.078 521.148C816.664 514.508 817.055 508.844 817.25 504.156C817.641 499.469 817.836 496.637 817.836 495.66C817.836 492.145 817.445 488.824 816.664 485.699C816.078 482.379 815.297 479.547 814.32 477.203C813.344 474.859 812.172 473.102 810.805 471.93C809.633 470.562 808.559 470.074 807.582 470.465C805.043 470.855 802.895 471.539 801.137 472.516C799.379 473.297 797.914 474.176 796.742 475.152C795.375 476.324 794.301 477.691 793.52 479.254C793.324 479.645 792.934 480.816 792.348 482.77C791.957 484.723 791.762 486.969 791.762 489.508C791.762 490.289 791.762 493.121 791.762 498.004C791.762 502.691 791.664 508.355 791.469 514.996C791.469 521.637 791.371 528.863 791.176 536.676C791.176 544.293 791.078 551.422 790.883 558.062C790.883 564.508 790.785 570.074 790.59 574.762C790.395 579.449 790.199 582.086 790.004 582.672C789.613 583.844 788.637 585.504 787.074 587.652C785.512 589.605 783.754 591.461 781.801 593.219C779.848 594.977 777.992 596.344 776.234 597.32C774.477 598.102 773.305 597.906 772.719 596.734C772.133 596.148 771.547 593.316 770.961 588.238C770.375 582.965 769.691 576.617 768.91 569.195C768.324 561.578 767.641 553.375 766.859 544.586C766.078 535.602 765.395 527.008 764.809 518.805C764.223 510.602 763.734 503.18 763.344 496.539C762.953 489.898 762.66 485.113 762.465 482.184C762.27 478.082 762.074 473.492 761.879 468.414C761.684 463.141 761.488 458.258 761.293 453.766C761.293 449.078 761.293 445.074 761.293 441.754C761.488 438.238 761.879 436.09 762.465 435.309C762.855 434.527 764.125 434.332 766.273 434.723C768.617 435.113 771.059 435.895 773.598 437.066C776.332 438.043 778.871 439.312 781.215 440.875C783.559 442.242 785.121 443.609 785.902 444.977C786.293 446.148 786.781 447.516 787.367 449.078C787.953 450.445 788.441 452.789 788.832 456.109C792.152 454.156 795.766 452.398 799.672 450.836C803.578 449.078 807.387 447.809 811.098 447.027C815.004 446.051 818.715 445.758 822.23 446.148C825.746 446.344 828.871 447.32 831.605 449.078C833.363 450.445 835.121 452.789 836.879 456.109C838.832 459.43 840.492 463.336 841.859 467.828C843.422 472.32 844.594 477.105 845.375 482.184C846.352 487.066 846.84 491.754 846.84 496.246ZM938.246 628.375C937.855 629.547 936.684 631.402 934.73 633.941C932.777 636.48 930.434 639.117 927.699 641.852C924.965 644.586 922.23 647.027 919.496 649.176C916.762 651.324 914.516 652.691 912.758 653.277C908.852 654.449 904.652 654.156 900.16 652.398C895.863 650.836 891.664 648.688 887.562 645.953C883.656 643.219 880.238 640.387 877.309 637.457C874.379 634.723 872.523 632.672 871.742 631.305C871.156 629.938 870.57 628.082 869.984 625.738C869.594 623.395 869.301 621.051 869.105 618.707C868.91 616.363 868.91 614.41 869.105 612.848C869.496 611.09 870.18 610.211 871.156 610.211C872.133 610.211 874.379 611.188 877.895 613.141C881.605 614.898 885.414 616.754 889.32 618.707C893.422 620.66 897.23 622.223 900.746 623.395C904.262 624.566 906.41 624.371 907.191 622.809C907.973 621.441 908.656 617.633 909.242 611.383C910.023 604.938 910.902 597.125 911.879 587.945C911.488 587.945 911.098 588.043 910.707 588.238C910.512 588.238 910.219 588.238 909.828 588.238C908.07 588.824 905.629 589.117 902.504 589.117C899.379 589.117 896.059 588.922 892.543 588.531C889.223 588.141 885.902 587.457 882.582 586.48C879.457 585.309 876.918 583.844 874.965 582.086C874.184 581.305 873.305 580.133 872.328 578.57C871.547 576.812 870.961 574.566 870.57 571.832C869.984 570.66 869.008 567.34 867.641 561.871C866.273 556.207 864.906 549.859 863.539 542.828C862.172 535.602 860.902 528.375 859.73 521.148C858.754 513.922 858.461 508.16 858.852 503.863C859.047 499.566 859.828 495.172 861.195 490.68C862.562 485.992 864.125 481.598 865.883 477.496C867.836 473.395 869.887 469.879 872.035 466.949C874.184 463.824 876.332 461.676 878.48 460.504C883.168 458.16 889.027 457.672 896.059 459.039C903.09 460.406 910.609 463.043 918.617 466.949C918.812 464.996 919.691 462.848 921.254 460.504C922.816 458.16 924.574 456.109 926.527 454.352C928.676 452.398 930.824 451.031 932.973 450.25C935.121 449.273 936.781 449.176 937.953 449.957C938.539 450.348 939.027 453.082 939.418 458.16C939.809 463.043 940.102 469.488 940.297 477.496C940.688 485.309 940.883 494.293 940.883 504.449C941.078 514.41 941.078 524.762 940.883 535.504C940.883 546.051 940.785 556.5 940.59 566.852C940.59 577.203 940.395 586.676 940.004 595.27C939.809 603.863 939.516 611.09 939.125 616.949C938.93 622.809 938.637 626.617 938.246 628.375ZM917.738 489.215C916.566 488.434 915.199 487.652 913.637 486.871C912.27 486.09 910.707 485.309 908.949 484.527C907.191 483.746 905.238 483.062 903.09 482.477C902.113 482.086 900.746 482.477 898.988 483.648C897.426 484.82 895.766 486.48 894.008 488.629C892.445 490.777 891.078 493.414 889.906 496.539C888.734 499.469 888.148 502.594 888.148 505.914C888.148 506.305 888.246 508.16 888.441 511.48C888.637 514.801 888.93 518.805 889.32 523.492C889.711 528.18 890.102 533.258 890.492 538.727C890.883 544.195 891.273 549.273 891.664 553.961C892.25 558.648 892.738 562.652 893.129 565.973C893.52 569.098 893.812 570.758 894.008 570.953C894.789 571.734 895.863 572.125 897.23 572.125C898.793 572.125 900.258 571.93 901.625 571.539C903.188 571.148 904.555 570.66 905.727 570.074C906.898 569.488 907.777 569 908.363 568.609C910.902 566.852 912.465 563.434 913.051 558.355C913.441 557.965 913.637 556.891 913.637 555.133C914.223 542.242 914.809 530.621 915.395 520.27C915.98 509.723 916.762 499.371 917.738 489.215ZM981.02 562.164C981.605 563.727 981.898 565.777 981.898 568.316C981.898 570.66 981.605 573.199 981.02 575.934C980.434 578.473 979.652 581.012 978.676 583.551C977.895 585.895 977.016 587.848 976.039 589.41C975.258 590.582 974.184 591.559 972.816 592.34C971.449 593.121 969.984 593.707 968.422 594.098C966.859 594.293 965.395 594.391 964.027 594.391C962.66 594.391 961.586 594.391 960.805 594.391C959.633 594.195 958.363 593.316 956.996 591.754C955.824 590.191 954.75 588.336 953.773 586.188C952.992 583.844 952.406 581.402 952.016 578.863C951.625 576.129 951.723 573.59 952.309 571.246C952.895 568.902 954.555 566.852 957.289 565.094C960.023 563.336 962.953 561.969 966.078 560.992C969.398 560.016 972.523 559.625 975.453 559.82C978.383 559.82 980.238 560.602 981.02 562.164ZM1017.05 562.164C1017.64 563.727 1017.93 565.777 1017.93 568.316C1017.93 570.66 1017.64 573.199 1017.05 575.934C1016.47 578.473 1015.69 581.012 1014.71 583.551C1013.93 585.895 1013.05 587.848 1012.07 589.41C1011.29 590.582 1010.22 591.559 1008.85 592.34C1007.48 593.121 1006.02 593.707 1004.46 594.098C1002.89 594.293 1001.43 594.391 1000.06 594.391C998.695 594.391 997.621 594.391 996.84 594.391C995.668 594.195 994.398 593.316 993.031 591.754C991.859 590.191 990.785 588.336 989.809 586.188C989.027 583.844 988.441 581.402 988.051 578.863C987.66 576.129 987.758 573.59 988.344 571.246C988.93 568.902 990.59 566.852 993.324 565.094C996.059 563.336 998.988 561.969 1002.11 560.992C1005.43 560.016 1008.56 559.625 1011.49 559.82C1014.42 559.82 1016.27 560.602 1017.05 562.164ZM1053.09 562.164C1053.68 563.727 1053.97 565.777 1053.97 568.316C1053.97 570.66 1053.68 573.199 1053.09 575.934C1052.5 578.473 1051.72 581.012 1050.75 583.551C1049.96 585.895 1049.09 587.848 1048.11 589.41C1047.33 590.582 1046.25 591.559 1044.89 592.34C1043.52 593.121 1042.05 593.707 1040.49 594.098C1038.93 594.293 1037.46 594.391 1036.1 594.391C1034.73 594.391 1033.66 594.391 1032.88 594.391C1031.7 594.195 1030.43 593.316 1029.07 591.754C1027.89 590.191 1026.82 588.336 1025.84 586.188C1025.06 583.844 1024.48 581.402 1024.09 578.863C1023.7 576.129 1023.79 573.59 1024.38 571.246C1024.96 568.902 1026.62 566.852 1029.36 565.094C1032.09 563.336 1035.02 561.969 1038.15 560.992C1041.47 560.016 1044.59 559.625 1047.52 559.82C1050.45 559.82 1052.31 560.602 1053.09 562.164ZM1089.12 562.164C1089.71 563.727 1090 565.777 1090 568.316C1090 570.66 1089.71 573.199 1089.12 575.934C1088.54 578.473 1087.76 581.012 1086.78 583.551C1086 585.895 1085.12 587.848 1084.14 589.41C1083.36 590.582 1082.29 591.559 1080.92 592.34C1079.55 593.121 1078.09 593.707 1076.53 594.098C1074.96 594.293 1073.5 594.391 1072.13 594.391C1070.77 594.391 1069.69 594.391 1068.91 594.391C1067.74 594.195 1066.47 593.316 1065.1 591.754C1063.93 590.191 1062.86 588.336 1061.88 586.188C1061.1 583.844 1060.51 581.402 1060.12 578.863C1059.73 576.129 1059.83 573.59 1060.41 571.246C1061 568.902 1062.66 566.852 1065.39 565.094C1068.13 563.336 1071.06 561.969 1074.18 560.992C1077.5 560.016 1080.63 559.625 1083.56 559.82C1086.49 559.82 1088.34 560.602 1089.12 562.164ZM1125.16 562.164C1125.75 563.727 1126.04 565.777 1126.04 568.316C1126.04 570.66 1125.75 573.199 1125.16 575.934C1124.57 578.473 1123.79 581.012 1122.82 583.551C1122.04 585.895 1121.16 587.848 1120.18 589.41C1119.4 590.582 1118.32 591.559 1116.96 592.34C1115.59 593.121 1114.12 593.707 1112.56 594.098C1111 594.293 1109.54 594.391 1108.17 594.391C1106.8 594.391 1105.73 594.391 1104.95 594.391C1103.77 594.195 1102.5 593.316 1101.14 591.754C1099.96 590.191 1098.89 588.336 1097.91 586.188C1097.13 583.844 1096.55 581.402 1096.16 578.863C1095.77 576.129 1095.86 573.59 1096.45 571.246C1097.04 568.902 1098.7 566.852 1101.43 565.094C1104.16 563.336 1107.09 561.969 1110.22 560.992C1113.54 560.016 1116.66 559.625 1119.59 559.82C1122.52 559.82 1124.38 560.602 1125.16 562.164Z" fill="white"/>
</svg>
