<svg width="1440" height="1024" viewBox="0 0 1440 1024" fill="none" xmlns="http://www.w3.org/2000/svg">
<rect width="1440" height="1024" fill="#1E1E1E"/>
<g clip-path="url(#clip0_0_1)">
<rect width="1440" height="1024" fill="white"/>
<rect x="-2" y="1" width="1442" height="160" fill="#799692"/>
<g filter="url(#filter0_d_0_1)">
<path d="M48.8463 95V49.5H57.2463V87.3H78.7363V95H48.8463ZM102.642 95.84C99.2818 95.84 96.3185 95.1167 93.7518 93.67C91.1851 92.1767 89.1785 90.1233 87.7318 87.51C86.2851 84.85 85.5618 81.7933 85.5618 78.34C85.5618 74.84 86.2851 71.7833 87.7318 69.17C89.1785 66.5567 91.1851 64.5267 93.7518 63.08C96.3185 61.5867 99.2818 60.84 102.642 60.84C106.002 60.84 108.965 61.5867 111.532 63.08C114.098 64.5267 116.105 66.5567 117.552 69.17C118.998 71.7833 119.722 74.84 119.722 78.34C119.722 81.7933 118.998 84.85 117.552 87.51C116.105 90.1233 114.098 92.1767 111.532 93.67C108.965 95.1167 106.002 95.84 102.642 95.84ZM102.642 88.28C105.348 88.28 107.472 87.4167 109.012 85.69C110.552 83.9167 111.322 81.4667 111.322 78.34C111.322 75.2133 110.552 72.7867 109.012 71.06C107.472 69.2867 105.348 68.4 102.642 68.4C99.9351 68.4 97.8118 69.2867 96.2718 71.06C94.7318 72.7867 93.9618 75.2133 93.9618 78.34C93.9618 81.4667 94.7318 83.9167 96.2718 85.69C97.8118 87.4167 99.9351 88.28 102.642 88.28ZM141.737 110.54C139.217 110.54 136.791 110.237 134.457 109.63C132.171 109.07 129.907 108.137 127.667 106.83L130.327 100.04C131.961 101.02 133.711 101.743 135.577 102.21C137.444 102.723 139.311 102.98 141.177 102.98C144.117 102.98 146.264 102.373 147.617 101.16C149.017 99.9933 149.717 98.1967 149.717 95.77V92.41C148.224 93.3433 146.707 94.0433 145.167 94.51C143.674 94.93 142.157 95.14 140.617 95.14C137.724 95.14 135.181 94.4167 132.987 92.97C130.841 91.5233 129.184 89.5167 128.017 86.95C126.851 84.3833 126.267 81.3967 126.267 77.99C126.267 74.5833 126.851 71.5967 128.017 69.03C129.184 66.4633 130.841 64.4567 132.987 63.01C135.181 61.5633 137.724 60.84 140.617 60.84C144.211 60.84 147.734 62.0533 151.187 64.48L151.887 61.68H157.977V96.33C157.977 100.95 156.577 104.473 153.777 106.9C151.024 109.327 147.011 110.54 141.737 110.54ZM142.717 87.58C145.097 87.58 147.431 86.95 149.717 85.69V70.29C147.431 69.03 145.097 68.4 142.717 68.4C140.011 68.4 137.981 69.24 136.627 70.92C135.274 72.5533 134.597 74.91 134.597 77.99C134.597 81.07 135.274 83.45 136.627 85.13C137.981 86.7633 140.011 87.58 142.717 87.58ZM179.223 95V69.1H166.343V61.68H187.483V87.58H200.363V95H179.223ZM182.653 55.66C181.066 55.66 179.736 55.1233 178.663 54.05C177.589 52.9767 177.053 51.6467 177.053 50.06C177.053 48.4733 177.589 47.1433 178.663 46.07C179.736 44.9967 181.066 44.46 182.653 44.46C184.239 44.46 185.569 44.9967 186.643 46.07C187.716 47.1433 188.253 48.4733 188.253 50.06C188.253 51.6467 187.716 52.9767 186.643 54.05C185.569 55.1233 184.239 55.66 182.653 55.66ZM209.078 95V61.68H215.168L215.868 64.55C217.642 63.2433 219.392 62.31 221.118 61.75C222.892 61.1433 224.758 60.84 226.718 60.84C230.638 60.84 233.648 61.96 235.748 64.2C237.848 66.3933 238.898 69.5433 238.898 73.65V95H230.638V74.91C230.638 72.53 230.172 70.85 229.238 69.87C228.352 68.89 226.788 68.4 224.548 68.4C223.242 68.4 222.005 68.5633 220.838 68.89C219.718 69.17 218.552 69.6367 217.338 70.29V95H209.078Z" fill="black"/>
</g>
<g filter="url(#filter1_d_0_1)">
<path d="M559.95 277.96C554.083 277.96 549.603 276.467 546.51 273.48C543.417 270.44 541.87 266.04 541.87 260.28V225H551.47V259.64C551.47 265.88 554.323 269 560.03 269C565.737 269 568.59 265.88 568.59 259.64V225H578.03V260.28C578.03 266.04 576.483 270.44 573.39 273.48C570.297 276.467 565.817 277.96 559.95 277.96ZM605.786 277.96C598.64 277.96 592.533 276.387 587.466 273.24L590.906 265.88C592.986 267.213 595.306 268.227 597.866 268.92C600.48 269.613 603.2 269.96 606.026 269.96C611.52 269.96 614.266 268.653 614.266 266.04C614.266 264.973 613.973 264.2 613.386 263.72C612.8 263.24 611.733 262.92 610.186 262.76L601.386 261.72C597.333 261.24 594.32 260.12 592.346 258.36C590.426 256.547 589.466 253.96 589.466 250.6C589.466 246.547 590.906 243.427 593.786 241.24C596.666 239.053 600.853 237.96 606.346 237.96C612.32 237.96 617.786 239.24 622.746 241.8L619.706 249.32C615.813 247.08 611.306 245.96 606.186 245.96C601.333 245.96 598.906 247.24 598.906 249.8C598.906 250.813 599.2 251.56 599.786 252.04C600.426 252.52 601.493 252.84 602.986 253L611.786 254.04C615.84 254.52 618.826 255.667 620.746 257.48C622.72 259.24 623.706 261.827 623.706 265.24C623.706 269.293 622.16 272.44 619.066 274.68C616.026 276.867 611.6 277.96 605.786 277.96ZM654.423 277.96C647.809 277.96 642.609 276.173 638.823 272.6C635.036 269.027 633.143 264.147 633.143 257.96C633.143 253.96 633.969 250.467 635.623 247.48C637.276 244.493 639.569 242.173 642.503 240.52C645.436 238.813 648.849 237.96 652.743 237.96C656.529 237.96 659.809 238.76 662.583 240.36C665.409 241.907 667.596 244.093 669.143 246.92C670.689 249.747 671.463 253.053 671.463 256.84C671.463 257.533 671.436 258.253 671.383 259C671.329 259.693 671.223 260.44 671.063 261.24H642.743C643.756 267.053 647.676 269.96 654.503 269.96C658.503 269.96 662.423 268.733 666.263 266.28L669.783 273.24C667.329 274.893 664.876 276.093 662.423 276.84C659.969 277.587 657.303 277.96 654.423 277.96ZM642.823 254.12H662.183C661.276 248.68 658.103 245.96 652.663 245.96C647.276 245.96 643.996 248.68 642.823 254.12ZM683.939 277V238.92H691.299L692.259 244.2C694.232 242.013 696.365 240.44 698.659 239.48C700.952 238.467 703.539 237.96 706.419 237.96C710.312 237.96 713.672 238.973 716.499 241L712.979 249.16C711.805 248.307 710.605 247.693 709.379 247.32C708.205 246.893 706.925 246.68 705.539 246.68C701.005 246.68 696.952 248.867 693.379 253.24V277H683.939ZM727.855 277V238.92H734.815L735.615 242.2C737.642 240.707 739.642 239.64 741.615 239C743.642 238.307 745.775 237.96 748.015 237.96C752.495 237.96 755.935 239.24 758.335 241.8C760.735 244.307 761.935 247.907 761.935 252.6V277H752.495V254.04C752.495 251.32 751.962 249.4 750.895 248.28C749.882 247.16 748.095 246.6 745.535 246.6C744.042 246.6 742.628 246.787 741.295 247.16C740.015 247.48 738.682 248.013 737.295 248.76V277H727.855ZM786.651 277.96C782.011 277.96 778.385 276.893 775.771 274.76C773.211 272.573 771.931 269.533 771.931 265.64C771.931 261.907 773.158 259.053 775.611 257.08C778.118 255.107 781.718 254.12 786.411 254.12H798.331V253.4C798.331 250.733 797.691 248.84 796.411 247.72C795.131 246.547 792.998 245.96 790.011 245.96C785.318 245.96 780.945 247.133 776.891 249.48L774.091 241.88C779.051 239.267 784.705 237.96 791.051 237.96C796.811 237.96 801.025 239.16 803.691 241.56C806.411 243.96 807.771 247.72 807.771 252.84V277H800.811L800.011 273.72C797.931 275.213 795.798 276.307 793.611 277C791.478 277.64 789.158 277.96 786.651 277.96ZM788.651 269.96C792.278 269.96 795.505 269.16 798.331 267.56V261.24H787.291C785.265 261.24 783.798 261.587 782.891 262.28C781.985 262.92 781.531 263.933 781.531 265.32C781.531 266.867 782.091 268.04 783.211 268.84C784.385 269.587 786.198 269.96 788.651 269.96ZM817.208 277V238.92H822.808L823.528 241.8C826.248 239.24 829.181 237.96 832.328 237.96C835.634 237.96 838.061 239.24 839.608 241.8C842.168 239.24 844.994 237.96 848.088 237.96C850.808 237.96 852.941 238.84 854.488 240.6C856.088 242.307 856.888 244.653 856.888 247.64V277H848.728V248.76C848.728 246.84 847.688 245.88 845.608 245.88C843.954 245.88 842.461 246.467 841.128 247.64V277H832.968V248.76C832.968 246.84 831.928 245.88 829.848 245.88C828.248 245.88 826.754 246.44 825.368 247.56V277H817.208ZM885.204 277.96C878.59 277.96 873.39 276.173 869.604 272.6C865.817 269.027 863.924 264.147 863.924 257.96C863.924 253.96 864.75 250.467 866.404 247.48C868.057 244.493 870.35 242.173 873.284 240.52C876.217 238.813 879.63 237.96 883.524 237.96C887.31 237.96 890.59 238.76 893.364 240.36C896.19 241.907 898.377 244.093 899.924 246.92C901.47 249.747 902.244 253.053 902.244 256.84C902.244 257.533 902.217 258.253 902.164 259C902.11 259.693 902.004 260.44 901.844 261.24H873.524C874.537 267.053 878.457 269.96 885.284 269.96C889.284 269.96 893.204 268.733 897.044 266.28L900.564 273.24C898.11 274.893 895.657 276.093 893.204 276.84C890.75 277.587 888.084 277.96 885.204 277.96ZM873.604 254.12H892.964C892.057 248.68 888.884 245.96 883.444 245.96C878.057 245.96 874.777 248.68 873.604 254.12Z" fill="black"/>
</g>
<g filter="url(#filter2_d_0_1)">
<path d="M563 863.827C563 840.727 580.417 822 601.902 822H843.098C864.583 822 882 840.727 882 863.827V925.173C882 948.273 864.583 967 843.098 967H601.902C580.417 967 563 948.273 563 925.173V863.827Z" fill="#AFB1C0"/>
<path d="M618.802 912.151C615.473 912.151 612.383 911.665 609.53 910.694C606.677 909.672 604.062 908.087 601.685 905.94L606.035 898.501C607.89 900.24 609.887 901.518 612.026 902.336C614.213 903.154 616.543 903.562 619.016 903.562C624.626 903.562 627.432 901.415 627.432 897.121C627.432 895.485 627.028 894.258 626.219 893.44C625.458 892.571 624.127 891.881 622.225 891.37L614.736 889.376C610.885 888.354 608.032 886.743 606.178 884.545C604.371 882.296 603.468 879.305 603.468 875.573C603.468 870.87 604.918 867.189 607.818 864.531C610.719 861.822 614.784 860.467 620.014 860.467C625.672 860.467 630.689 862.128 635.063 865.451L630.998 873.043C627.955 870.384 624.294 869.055 620.014 869.055C614.736 869.055 612.098 871.075 612.098 875.113C612.098 876.545 612.478 877.695 613.239 878.564C614.047 879.382 615.402 880.046 617.304 880.558L624.793 882.551C628.644 883.574 631.473 885.21 633.28 887.459C635.134 889.657 636.062 892.725 636.062 896.661C636.062 901.467 634.54 905.25 631.497 908.01C628.501 910.771 624.27 912.151 618.802 912.151Z" fill="black"/>
<path d="M657.211 912.151C653.217 912.151 650.15 910.95 648.01 908.547C645.87 906.093 644.801 902.617 644.801 898.118V874.73H653.217V896.738C653.217 899.345 653.668 901.185 654.572 902.259C655.523 903.332 657.139 903.869 659.422 903.869C660.753 903.869 662.013 903.69 663.202 903.332C664.39 902.975 665.579 902.463 666.768 901.799V874.73H675.183V911.231H668.979L668.265 908.087C666.506 909.518 664.723 910.566 662.916 911.231C661.109 911.844 659.208 912.151 657.211 912.151Z" fill="black"/>
<path d="M703.75 912.151C700.089 912.151 696.499 910.822 692.98 908.163L692.267 911.231H686.062V856.786H694.478V876.8C696 875.778 697.521 875.037 699.043 874.576C700.612 874.065 702.181 873.81 703.75 873.81C708.219 873.81 711.762 875.548 714.377 879.024C717.039 882.449 718.371 887.101 718.371 892.98C718.371 898.859 717.039 903.537 714.377 907.013C711.762 910.438 708.219 912.151 703.75 912.151ZM701.61 903.869C707.126 903.869 709.884 900.24 709.884 892.98C709.884 885.721 707.126 882.091 701.61 882.091C699.233 882.091 696.856 882.781 694.478 884.162V901.799C696.856 903.179 699.233 903.869 701.61 903.869Z" fill="black"/>
<path d="M724.828 911.231V874.73H729.82L730.462 877.49C732.887 875.037 735.502 873.81 738.307 873.81C741.255 873.81 743.419 875.037 744.798 877.49C747.08 875.037 749.6 873.81 752.358 873.81C754.783 873.81 756.684 874.653 758.063 876.34C759.49 877.976 760.203 880.225 760.203 883.088V911.231H752.928V884.162C752.928 882.321 752.001 881.401 750.147 881.401C748.673 881.401 747.341 881.964 746.153 883.088V911.231H738.878V884.162C738.878 882.321 737.951 881.401 736.096 881.401C734.67 881.401 733.339 881.938 732.102 883.012V911.231H724.828Z" fill="black"/>
<path d="M779.212 911.231V882.858H766.089V874.73H787.628V903.102H800.751V911.231H779.212ZM782.707 868.135C781.09 868.135 779.735 867.547 778.642 866.371C777.548 865.196 777.001 863.739 777.001 862C777.001 860.262 777.548 858.805 778.642 857.63C779.735 856.454 781.09 855.866 782.707 855.866C784.324 855.866 785.679 856.454 786.772 857.63C787.866 858.805 788.413 860.262 788.413 862C788.413 863.739 787.866 865.196 786.772 866.371C785.679 867.547 784.324 868.135 782.707 868.135Z" fill="black"/>
<path d="M830.174 912.151C821.425 912.151 817.051 907.473 817.051 898.118V882.858H807.137V874.73H817.051V864.378L825.466 860.467V874.73H838.304V882.858H825.466V896.738C825.466 899.345 825.918 901.185 826.822 902.259C827.772 903.332 829.389 903.869 831.671 903.869C834.477 903.869 837.187 903 839.802 901.262L841.942 908.93C838.518 911.077 834.596 912.151 830.174 912.151Z" fill="black"/>
</g>
<g filter="url(#filter3_i_0_1)">
<rect x="386" y="315" width="665" height="127" rx="15" fill="#D9D9D9"/>
</g>
<g filter="url(#filter4_d_0_1)">
<path d="M543.07 579V527H562.75C568.297 527 572.51 528.36 575.39 531.08C578.323 533.747 579.79 537.613 579.79 542.68C579.79 547.747 578.323 551.64 575.39 554.36C572.51 557.027 568.297 558.36 562.75 558.36H552.75V579H543.07ZM552.75 549.56H561.95C564.83 549.56 566.883 549.027 568.11 547.96C569.39 546.893 570.03 545.133 570.03 542.68C570.03 540.227 569.39 538.467 568.11 537.4C566.883 536.333 564.83 535.8 561.95 535.8H552.75V549.56ZM602.026 579.96C597.386 579.96 593.76 578.893 591.146 576.76C588.586 574.573 587.306 571.533 587.306 567.64C587.306 563.907 588.533 561.053 590.986 559.08C593.493 557.107 597.093 556.12 601.786 556.12H613.706V555.4C613.706 552.733 613.066 550.84 611.786 549.72C610.506 548.547 608.373 547.96 605.386 547.96C600.693 547.96 596.32 549.133 592.266 551.48L589.466 543.88C594.426 541.267 600.08 539.96 606.426 539.96C612.186 539.96 616.4 541.16 619.066 543.56C621.786 545.96 623.146 549.72 623.146 554.84V579H616.186L615.386 575.72C613.306 577.213 611.173 578.307 608.986 579C606.853 579.64 604.533 579.96 602.026 579.96ZM604.026 571.96C607.653 571.96 610.88 571.16 613.706 569.56V563.24H602.666C600.64 563.24 599.173 563.587 598.266 564.28C597.36 564.92 596.906 565.933 596.906 567.32C596.906 568.867 597.466 570.04 598.586 570.84C599.76 571.587 601.573 571.96 604.026 571.96ZM651.943 579.96C644.796 579.96 638.689 578.387 633.623 575.24L637.063 567.88C639.143 569.213 641.463 570.227 644.023 570.92C646.636 571.613 649.356 571.96 652.183 571.96C657.676 571.96 660.423 570.653 660.423 568.04C660.423 566.973 660.129 566.2 659.543 565.72C658.956 565.24 657.889 564.92 656.343 564.76L647.543 563.72C643.489 563.24 640.476 562.12 638.503 560.36C636.583 558.547 635.623 555.96 635.623 552.6C635.623 548.547 637.063 545.427 639.943 543.24C642.823 541.053 647.009 539.96 652.503 539.96C658.476 539.96 663.943 541.24 668.903 543.8L665.863 551.32C661.969 549.08 657.463 547.96 652.343 547.96C647.489 547.96 645.063 549.24 645.063 551.8C645.063 552.813 645.356 553.56 645.943 554.04C646.583 554.52 647.649 554.84 649.143 555L657.943 556.04C661.996 556.52 664.983 557.667 666.903 559.48C668.876 561.24 669.863 563.827 669.863 567.24C669.863 571.293 668.316 574.44 665.223 576.68C662.183 578.867 657.756 579.96 651.943 579.96ZM698.099 579.96C690.952 579.96 684.845 578.387 679.779 575.24L683.219 567.88C685.299 569.213 687.619 570.227 690.179 570.92C692.792 571.613 695.512 571.96 698.339 571.96C703.832 571.96 706.579 570.653 706.579 568.04C706.579 566.973 706.285 566.2 705.699 565.72C705.112 565.24 704.045 564.92 702.499 564.76L693.699 563.72C689.645 563.24 686.632 562.12 684.659 560.36C682.739 558.547 681.779 555.96 681.779 552.6C681.779 548.547 683.219 545.427 686.099 543.24C688.979 541.053 693.165 539.96 698.659 539.96C704.632 539.96 710.099 541.24 715.059 543.8L712.019 551.32C708.125 549.08 703.619 547.96 698.499 547.96C693.645 547.96 691.219 549.24 691.219 551.8C691.219 552.813 691.512 553.56 692.099 554.04C692.739 554.52 693.805 554.84 695.299 555L704.099 556.04C708.152 556.52 711.139 557.667 713.059 559.48C715.032 561.24 716.019 563.827 716.019 567.24C716.019 571.293 714.472 574.44 711.379 576.68C708.339 578.867 703.912 579.96 698.099 579.96ZM730.335 579L721.535 540.92H729.935L735.855 567.4L741.615 545.32H748.015L753.775 567.4L759.695 540.92H767.615L758.815 579H750.175L744.575 557.4L738.975 579H730.335ZM790.731 579.96C786.891 579.96 783.505 579.133 780.571 577.48C777.638 575.773 775.345 573.427 773.691 570.44C772.038 567.4 771.211 563.907 771.211 559.96C771.211 555.96 772.038 552.467 773.691 549.48C775.345 546.493 777.638 544.173 780.571 542.52C783.505 540.813 786.891 539.96 790.731 539.96C794.571 539.96 797.958 540.813 800.891 542.52C803.825 544.173 806.118 546.493 807.771 549.48C809.425 552.467 810.251 555.96 810.251 559.96C810.251 563.907 809.425 567.4 807.771 570.44C806.118 573.427 803.825 575.773 800.891 577.48C797.958 579.133 794.571 579.96 790.731 579.96ZM790.731 571.32C793.825 571.32 796.251 570.333 798.011 568.36C799.771 566.333 800.651 563.533 800.651 559.96C800.651 556.387 799.771 553.613 798.011 551.64C796.251 549.613 793.825 548.6 790.731 548.6C787.638 548.6 785.211 549.613 783.451 551.64C781.691 553.613 780.811 556.387 780.811 559.96C780.811 563.533 781.691 566.333 783.451 568.36C785.211 570.333 787.638 571.32 790.731 571.32ZM822.408 579V540.92H829.768L830.728 546.2C832.701 544.013 834.834 542.44 837.128 541.48C839.421 540.467 842.008 539.96 844.888 539.96C848.781 539.96 852.141 540.973 854.968 543L851.448 551.16C850.274 550.307 849.074 549.693 847.848 549.32C846.674 548.893 845.394 548.68 844.008 548.68C839.474 548.68 835.421 550.867 831.848 555.24V579H822.408ZM880.324 579.96C875.31 579.96 871.31 578.173 868.324 574.6C865.39 570.973 863.924 566.093 863.924 559.96C863.924 553.827 865.39 548.973 868.324 545.4C871.31 541.773 875.31 539.96 880.324 539.96C882.084 539.96 883.817 540.227 885.524 540.76C887.284 541.24 889.017 542.013 890.724 543.08V522.2H900.164V579H893.204L892.404 575.8C888.457 578.573 884.43 579.96 880.324 579.96ZM882.724 571.32C885.444 571.32 888.11 570.6 890.724 569.16V550.76C888.11 549.32 885.444 548.6 882.724 548.6C876.537 548.6 873.444 552.387 873.444 559.96C873.444 567.533 876.537 571.32 882.724 571.32Z" fill="black"/>
</g>
<g filter="url(#filter5_i_0_1)">
<rect x="389" y="618" width="665" height="126" rx="15" fill="#D9D9D9"/>
</g>
</g>
<defs>
<filter id="filter0_d_0_1" x="44.8463" y="44.46" width="198.052" height="76.08" filterUnits="userSpaceOnUse" color-interpolation-filters="sRGB">
<feFlood flood-opacity="0" result="BackgroundImageFix"/>
<feColorMatrix in="SourceAlpha" type="matrix" values="0 0 0 0 0 0 0 0 0 0 0 0 0 0 0 0 0 0 127 0" result="hardAlpha"/>
<feOffset dy="6"/>
<feGaussianBlur stdDeviation="2"/>
<feComposite in2="hardAlpha" operator="out"/>
<feColorMatrix type="matrix" values="0 0 0 0 0.38745 0 0 0 0 0.478333 0 0 0 0 0.465798 0 0 0 1 0"/>
<feBlend mode="normal" in2="BackgroundImageFix" result="effect1_dropShadow_0_1"/>
<feBlend mode="normal" in="SourceGraphic" in2="effect1_dropShadow_0_1" result="shape"/>
</filter>
<filter id="filter1_d_0_1" x="537.87" y="225" width="368.374" height="66.96" filterUnits="userSpaceOnUse" color-interpolation-filters="sRGB">
<feFlood flood-opacity="0" result="BackgroundImageFix"/>
<feColorMatrix in="SourceAlpha" type="matrix" values="0 0 0 0 0 0 0 0 0 0 0 0 0 0 0 0 0 0 127 0" result="hardAlpha"/>
<feOffset dy="10"/>
<feGaussianBlur stdDeviation="2"/>
<feComposite in2="hardAlpha" operator="out"/>
<feColorMatrix type="matrix" values="0 0 0 0 0.894118 0 0 0 0 0.886275 0 0 0 0 0.913725 0 0 0 1 0"/>
<feBlend mode="normal" in2="BackgroundImageFix" result="effect1_dropShadow_0_1"/>
<feBlend mode="normal" in="SourceGraphic" in2="effect1_dropShadow_0_1" result="shape"/>
</filter>
<filter id="filter2_d_0_1" x="559" y="822" width="327" height="157" filterUnits="userSpaceOnUse" color-interpolation-filters="sRGB">
<feFlood flood-opacity="0" result="BackgroundImageFix"/>
<feColorMatrix in="SourceAlpha" type="matrix" values="0 0 0 0 0 0 0 0 0 0 0 0 0 0 0 0 0 0 127 0" result="hardAlpha"/>
<feOffset dy="8"/>
<feGaussianBlur stdDeviation="2"/>
<feComposite in2="hardAlpha" operator="out"/>
<feColorMatrix type="matrix" values="0 0 0 0 0.901961 0 0 0 0 0.894118 0 0 0 0 0.921569 0 0 0 1 0"/>
<feBlend mode="normal" in2="BackgroundImageFix" result="effect1_dropShadow_0_1"/>
<feBlend mode="normal" in="SourceGraphic" in2="effect1_dropShadow_0_1" result="shape"/>
</filter>
<filter id="filter3_i_0_1" x="386" y="315" width="665" height="129" filterUnits="userSpaceOnUse" color-interpolation-filters="sRGB">
<feFlood flood-opacity="0" result="BackgroundImageFix"/>
<feBlend mode="normal" in="SourceGraphic" in2="BackgroundImageFix" result="shape"/>
<feColorMatrix in="SourceAlpha" type="matrix" values="0 0 0 0 0 0 0 0 0 0 0 0 0 0 0 0 0 0 127 0" result="hardAlpha"/>
<feOffset dy="6"/>
<feGaussianBlur stdDeviation="1"/>
<feComposite in2="hardAlpha" operator="arithmetic" k2="-1" k3="1"/>
<feColorMatrix type="matrix" values="0 0 0 0 0 0 0 0 0 0 0 0 0 0 0 0 0 0 0.25 0"/>
<feBlend mode="normal" in2="shape" result="effect1_innerShadow_0_1"/>
</filter>
<filter id="filter4_d_0_1" x="539.07" y="522.2" width="365.094" height="71.76" filterUnits="userSpaceOnUse" color-interpolation-filters="sRGB">
<feFlood flood-opacity="0" result="BackgroundImageFix"/>
<feColorMatrix in="SourceAlpha" type="matrix" values="0 0 0 0 0 0 0 0 0 0 0 0 0 0 0 0 0 0 127 0" result="hardAlpha"/>
<feOffset dy="10"/>
<feGaussianBlur stdDeviation="2"/>
<feComposite in2="hardAlpha" operator="out"/>
<feColorMatrix type="matrix" values="0 0 0 0 0.894118 0 0 0 0 0.886275 0 0 0 0 0.913725 0 0 0 1 0"/>
<feBlend mode="normal" in2="BackgroundImageFix" result="effect1_dropShadow_0_1"/>
<feBlend mode="normal" in="SourceGraphic" in2="effect1_dropShadow_0_1" result="shape"/>
</filter>
<filter id="filter5_i_0_1" x="389" y="618" width="665" height="128" filterUnits="userSpaceOnUse" color-interpolation-filters="sRGB">
<feFlood flood-opacity="0" result="BackgroundImageFix"/>
<feBlend mode="normal" in="SourceGraphic" in2="BackgroundImageFix" result="shape"/>
<feColorMatrix in="SourceAlpha" type="matrix" values="0 0 0 0 0 0 0 0 0 0 0 0 0 0 0 0 0 0 127 0" result="hardAlpha"/>
<feOffset dy="6"/>
<feGaussianBlur stdDeviation="1"/>
<feComposite in2="hardAlpha" operator="arithmetic" k2="-1" k3="1"/>
<feColorMatrix type="matrix" values="0 0 0 0 0 0 0 0 0 0 0 0 0 0 0 0 0 0 0.25 0"/>
<feBlend mode="normal" in2="shape" result="effect1_innerShadow_0_1"/>
</filter>
<clipPath id="clip0_0_1">
<rect width="1440" height="1024" fill="white"/>
</clipPath>
</defs>
</svg>
