<svg width="1440" height="1024" viewBox="0 0 1440 1024" fill="none" xmlns="http://www.w3.org/2000/svg">
<rect width="1440" height="1024" fill="#1E1E1E"/>
<g clip-path="url(#clip0_0_1)">
<rect width="1440" height="1024" fill="white"/>
<rect x="-2" y="-1" width="1442" height="160" fill="#799692"/>
<g filter="url(#filter0_d_0_1)">
<path d="M41.6886 95.84C38.4219 95.84 35.3886 95.3967 32.5886 94.51C29.7886 93.5767 27.2219 92.13 24.8886 90.17L29.1586 83.38C30.9786 84.9667 32.9386 86.1333 35.0386 86.88C37.1853 87.6267 39.4719 88 41.8986 88C47.4053 88 50.1586 86.04 50.1586 82.12C50.1586 80.6267 49.7619 79.5067 48.9686 78.76C48.2219 77.9667 46.9153 77.3367 45.0486 76.87L37.6986 75.05C33.9186 74.1167 31.1186 72.6467 29.2986 70.64C27.5253 68.5867 26.6386 65.8567 26.6386 62.45C26.6386 58.1567 28.0619 54.7967 30.9086 52.37C33.7553 49.8967 37.7453 48.66 42.8786 48.66C48.4319 48.66 53.3553 50.1767 57.6486 53.21L53.6586 60.14C50.6719 57.7133 47.0786 56.5 42.8786 56.5C37.6986 56.5 35.1086 58.3433 35.1086 62.03C35.1086 63.3367 35.4819 64.3867 36.2286 65.18C37.0219 65.9267 38.3519 66.5333 40.2186 67L47.5686 68.82C51.3486 69.7533 54.1253 71.2467 55.8986 73.3C57.7186 75.3067 58.6286 78.1067 58.6286 81.7C58.6286 86.0867 57.1353 89.54 54.1486 92.06C51.2086 94.58 47.0553 95.84 41.6886 95.84ZM78.3341 95V69.1H65.4541V61.68H86.5941V87.58H99.4741V95H78.3341ZM81.7641 55.66C80.1774 55.66 78.8474 55.1233 77.7741 54.05C76.7007 52.9767 76.1641 51.6467 76.1641 50.06C76.1641 48.4733 76.7007 47.1433 77.7741 46.07C78.8474 44.9967 80.1774 44.46 81.7641 44.46C83.3507 44.46 84.6807 44.9967 85.7541 46.07C86.8274 47.1433 87.3641 48.4733 87.3641 50.06C87.3641 51.6467 86.8274 52.9767 85.7541 54.05C84.6807 55.1233 83.3507 55.66 81.7641 55.66ZM121.56 110.54C119.04 110.54 116.613 110.237 114.28 109.63C111.993 109.07 109.73 108.137 107.49 106.83L110.15 100.04C111.783 101.02 113.533 101.743 115.4 102.21C117.266 102.723 119.133 102.98 121 102.98C123.94 102.98 126.086 102.373 127.44 101.16C128.84 99.9933 129.54 98.1967 129.54 95.77V92.41C128.046 93.3433 126.53 94.0433 124.99 94.51C123.496 94.93 121.98 95.14 120.44 95.14C117.546 95.14 115.003 94.4167 112.81 92.97C110.663 91.5233 109.006 89.5167 107.84 86.95C106.673 84.3833 106.09 81.3967 106.09 77.99C106.09 74.5833 106.673 71.5967 107.84 69.03C109.006 66.4633 110.663 64.4567 112.81 63.01C115.003 61.5633 117.546 60.84 120.44 60.84C124.033 60.84 127.556 62.0533 131.01 64.48L131.71 61.68H137.8V96.33C137.8 100.95 136.4 104.473 133.6 106.9C130.846 109.327 126.833 110.54 121.56 110.54ZM122.54 87.58C124.92 87.58 127.253 86.95 129.54 85.69V70.29C127.253 69.03 124.92 68.4 122.54 68.4C119.833 68.4 117.803 69.24 116.45 70.92C115.096 72.5533 114.42 74.91 114.42 77.99C114.42 81.07 115.096 83.45 116.45 85.13C117.803 86.7633 119.833 87.58 122.54 87.58ZM148.545 95V61.68H154.635L155.335 64.55C157.108 63.2433 158.858 62.31 160.585 61.75C162.358 61.1433 164.225 60.84 166.185 60.84C170.105 60.84 173.115 61.96 175.215 64.2C177.315 66.3933 178.365 69.5433 178.365 73.65V95H170.105V74.91C170.105 72.53 169.638 70.85 168.705 69.87C167.818 68.89 166.255 68.4 164.015 68.4C162.708 68.4 161.472 68.5633 160.305 68.89C159.185 69.17 158.018 69.6367 156.805 70.29V95H148.545ZM200.52 95.84C196.6 95.84 193.59 94.7433 191.49 92.55C189.39 90.31 188.34 87.1367 188.34 83.03V61.68H196.6V81.77C196.6 84.15 197.044 85.83 197.93 86.81C198.864 87.79 200.45 88.28 202.69 88.28C203.997 88.28 205.234 88.1167 206.4 87.79C207.567 87.4633 208.734 86.9967 209.9 86.39V61.68H218.16V95H212.07L211.37 92.13C209.644 93.4367 207.894 94.3933 206.12 95C204.347 95.56 202.48 95.84 200.52 95.84ZM228.906 109.7V61.68H234.996L235.696 64.48C239.149 62.0533 242.673 60.84 246.266 60.84C250.653 60.84 254.129 62.4267 256.696 65.6C259.309 68.7267 260.616 72.9733 260.616 78.34C260.616 83.7067 259.309 87.9767 256.696 91.15C254.129 94.2767 250.653 95.84 246.266 95.84C244.726 95.84 243.186 95.6067 241.646 95.14C240.153 94.72 238.659 94.0433 237.166 93.11V109.7H228.906ZM244.166 88.28C249.579 88.28 252.286 84.9667 252.286 78.34C252.286 71.7133 249.579 68.4 244.166 68.4C241.833 68.4 239.499 69.03 237.166 70.29V86.39C239.499 87.65 241.833 88.28 244.166 88.28Z" fill="black"/>
</g>
<g filter="url(#filter1_d_0_1)">
<path d="M568.102 256.9C562.602 256.9 558.402 255.5 555.502 252.7C552.602 249.85 551.152 245.725 551.152 240.325V207.25H560.152V239.725C560.152 245.575 562.827 248.5 568.177 248.5C573.527 248.5 576.202 245.575 576.202 239.725V207.25H585.052V240.325C585.052 245.725 583.602 249.85 580.702 252.7C577.802 255.5 573.602 256.9 568.102 256.9ZM611.057 256.9C604.357 256.9 598.632 255.425 593.882 252.475L597.107 245.575C599.057 246.825 601.232 247.775 603.632 248.425C606.082 249.075 608.632 249.4 611.282 249.4C616.432 249.4 619.007 248.175 619.007 245.725C619.007 244.725 618.732 244 618.182 243.55C617.632 243.1 616.632 242.8 615.182 242.65L606.932 241.675C603.132 241.225 600.307 240.175 598.457 238.525C596.657 236.825 595.757 234.4 595.757 231.25C595.757 227.45 597.107 224.525 599.807 222.475C602.507 220.425 606.432 219.4 611.582 219.4C617.182 219.4 622.307 220.6 626.957 223L624.107 230.05C620.457 227.95 616.232 226.9 611.432 226.9C606.882 226.9 604.607 228.1 604.607 230.5C604.607 231.45 604.882 232.15 605.432 232.6C606.032 233.05 607.032 233.35 608.432 233.5L616.682 234.475C620.482 234.925 623.282 236 625.082 237.7C626.932 239.35 627.857 241.775 627.857 244.975C627.857 248.775 626.407 251.725 623.507 253.825C620.657 255.875 616.507 256.9 611.057 256.9ZM656.638 256.9C650.438 256.9 645.563 255.225 642.013 251.875C638.463 248.525 636.688 243.95 636.688 238.15C636.688 234.4 637.463 231.125 639.013 228.325C640.563 225.525 642.713 223.35 645.463 221.8C648.213 220.2 651.413 219.4 655.063 219.4C658.613 219.4 661.688 220.15 664.288 221.65C666.938 223.1 668.988 225.15 670.438 227.8C671.888 230.45 672.613 233.55 672.613 237.1C672.613 237.75 672.588 238.425 672.538 239.125C672.488 239.775 672.388 240.475 672.238 241.225H645.688C646.638 246.675 650.313 249.4 656.713 249.4C660.463 249.4 664.138 248.25 667.738 245.95L671.038 252.475C668.738 254.025 666.438 255.15 664.138 255.85C661.838 256.55 659.338 256.9 656.638 256.9ZM645.763 234.55H663.913C663.063 229.45 660.088 226.9 654.988 226.9C649.938 226.9 646.863 229.45 645.763 234.55ZM684.294 256V220.3H691.194L692.094 225.25C693.944 223.2 695.944 221.725 698.094 220.825C700.244 219.875 702.669 219.4 705.369 219.4C709.019 219.4 712.169 220.35 714.819 222.25L711.519 229.9C710.419 229.1 709.294 228.525 708.144 228.175C707.044 227.775 705.844 227.575 704.544 227.575C700.294 227.575 696.494 229.625 693.144 233.725V256H684.294ZM725.45 256V220.3H731.975L732.725 223.375C734.625 221.975 736.5 220.975 738.35 220.375C740.25 219.725 742.25 219.4 744.35 219.4C748.55 219.4 751.775 220.6 754.025 223C756.275 225.35 757.4 228.725 757.4 233.125V256H748.55V234.475C748.55 231.925 748.05 230.125 747.05 229.075C746.1 228.025 744.425 227.5 742.025 227.5C740.625 227.5 739.3 227.675 738.05 228.025C736.85 228.325 735.6 228.825 734.3 229.525V256H725.45ZM780.556 256.9C776.206 256.9 772.806 255.9 770.356 253.9C767.956 251.85 766.756 249 766.756 245.35C766.756 241.85 767.906 239.175 770.206 237.325C772.556 235.475 775.931 234.55 780.331 234.55H791.506V233.875C791.506 231.375 790.906 229.6 789.706 228.55C788.506 227.45 786.506 226.9 783.706 226.9C779.306 226.9 775.206 228 771.406 230.2L768.781 223.075C773.431 220.625 778.731 219.4 784.681 219.4C790.081 219.4 794.031 220.525 796.531 222.775C799.081 225.025 800.356 228.55 800.356 233.35V256H793.831L793.081 252.925C791.131 254.325 789.131 255.35 787.081 256C785.081 256.6 782.906 256.9 780.556 256.9ZM782.431 249.4C785.831 249.4 788.856 248.65 791.506 247.15V241.225H781.156C779.256 241.225 777.881 241.55 777.031 242.2C776.181 242.8 775.756 243.75 775.756 245.05C775.756 246.5 776.281 247.6 777.331 248.35C778.431 249.05 780.131 249.4 782.431 249.4ZM809.187 256V220.3H814.437L815.112 223C817.662 220.6 820.412 219.4 823.362 219.4C826.462 219.4 828.737 220.6 830.187 223C832.587 220.6 835.237 219.4 838.137 219.4C840.687 219.4 842.687 220.225 844.137 221.875C845.637 223.475 846.387 225.675 846.387 228.475V256H838.737V229.525C838.737 227.725 837.762 226.825 835.812 226.825C834.262 226.825 832.862 227.375 831.612 228.475V256H823.962V229.525C823.962 227.725 822.987 226.825 821.037 226.825C819.537 226.825 818.137 227.35 816.837 228.4V256H809.187ZM872.918 256.9C866.718 256.9 861.843 255.225 858.293 251.875C854.743 248.525 852.968 243.95 852.968 238.15C852.968 234.4 853.743 231.125 855.293 228.325C856.843 225.525 858.993 223.35 861.743 221.8C864.493 220.2 867.693 219.4 871.343 219.4C874.893 219.4 877.968 220.15 880.568 221.65C883.218 223.1 885.268 225.15 886.718 227.8C888.168 230.45 888.893 233.55 888.893 237.1C888.893 237.75 888.868 238.425 888.818 239.125C888.768 239.775 888.668 240.475 888.518 241.225H861.968C862.918 246.675 866.593 249.4 872.993 249.4C876.743 249.4 880.418 248.25 884.018 245.95L887.318 252.475C885.018 254.025 882.718 255.15 880.418 255.85C878.118 256.55 875.618 256.9 872.918 256.9ZM862.043 234.55H880.193C879.343 229.45 876.368 226.9 871.268 226.9C866.218 226.9 863.143 229.45 862.043 234.55Z" fill="black"/>
</g>
<g filter="url(#filter2_i_0_1)">
<rect x="396" y="283" width="651" height="102" rx="15" fill="#D9D9D9"/>
</g>
<g filter="url(#filter3_d_0_1)">
<path d="M618.135 481V432.25H650.16V440.5H627.135V452.05H646.56V460.3H627.135V472.75H650.16V481H618.135ZM657.791 481V445.3H663.041L663.716 448C666.266 445.6 669.016 444.4 671.966 444.4C675.066 444.4 677.341 445.6 678.791 448C681.191 445.6 683.841 444.4 686.741 444.4C689.291 444.4 691.291 445.225 692.741 446.875C694.241 448.475 694.991 450.675 694.991 453.475V481H687.341V454.525C687.341 452.725 686.366 451.825 684.416 451.825C682.866 451.825 681.466 452.375 680.216 453.475V481H672.566V454.525C672.566 452.725 671.591 451.825 669.641 451.825C668.141 451.825 666.741 452.35 665.441 453.4V481H657.791ZM715.672 481.9C711.322 481.9 707.922 480.9 705.472 478.9C703.072 476.85 701.872 474 701.872 470.35C701.872 466.85 703.022 464.175 705.322 462.325C707.672 460.475 711.047 459.55 715.447 459.55H726.622V458.875C726.622 456.375 726.022 454.6 724.822 453.55C723.622 452.45 721.622 451.9 718.822 451.9C714.422 451.9 710.322 453 706.522 455.2L703.897 448.075C708.547 445.625 713.847 444.4 719.797 444.4C725.197 444.4 729.147 445.525 731.647 447.775C734.197 450.025 735.472 453.55 735.472 458.35V481H728.947L728.197 477.925C726.247 479.325 724.247 480.35 722.197 481C720.197 481.6 718.022 481.9 715.672 481.9ZM717.547 474.4C720.947 474.4 723.972 473.65 726.622 472.15V466.225H716.272C714.372 466.225 712.997 466.55 712.147 467.2C711.297 467.8 710.872 468.75 710.872 470.05C710.872 471.5 711.397 472.6 712.447 473.35C713.547 474.05 715.247 474.4 717.547 474.4ZM758.328 481V453.25H744.528V445.3H767.178V473.05H780.978V481H758.328ZM762.003 438.85C760.303 438.85 758.878 438.275 757.728 437.125C756.578 435.975 756.003 434.55 756.003 432.85C756.003 431.15 756.578 429.725 757.728 428.575C758.878 427.425 760.303 426.85 762.003 426.85C763.703 426.85 765.128 427.425 766.278 428.575C767.428 429.725 768.003 431.15 768.003 432.85C768.003 434.55 767.428 435.975 766.278 437.125C765.128 438.275 763.703 438.85 762.003 438.85ZM813.584 481.9C804.384 481.9 799.784 477.325 799.784 468.175V435.775H785.984V427.75H808.634V466.825C808.634 469.375 809.109 471.175 810.059 472.225C811.059 473.275 812.759 473.8 815.159 473.8C818.109 473.8 820.959 472.95 823.709 471.25L825.959 478.75C822.359 480.85 818.234 481.9 813.584 481.9Z" fill="black"/>
</g>
<g filter="url(#filter4_i_0_1)">
<rect x="396" y="500" width="651" height="102" rx="15" fill="#D9D9D9"/>
</g>
<g filter="url(#filter5_d_0_1)">
<path d="M550.277 690V641.25H568.727C573.927 641.25 577.877 642.525 580.577 645.075C583.327 647.575 584.702 651.2 584.702 655.95C584.702 660.7 583.327 664.35 580.577 666.9C577.877 669.4 573.927 670.65 568.727 670.65H559.352V690H550.277ZM559.352 662.4H567.977C570.677 662.4 572.602 661.9 573.752 660.9C574.952 659.9 575.552 658.25 575.552 655.95C575.552 653.65 574.952 652 573.752 651C572.602 650 570.677 649.5 567.977 649.5H559.352V662.4ZM605.532 690.9C601.182 690.9 597.782 689.9 595.332 687.9C592.932 685.85 591.732 683 591.732 679.35C591.732 675.85 592.882 673.175 595.182 671.325C597.532 669.475 600.907 668.55 605.307 668.55H616.482V667.875C616.482 665.375 615.882 663.6 614.682 662.55C613.482 661.45 611.482 660.9 608.682 660.9C604.282 660.9 600.182 662 596.382 664.2L593.757 657.075C598.407 654.625 603.707 653.4 609.657 653.4C615.057 653.4 619.007 654.525 621.507 656.775C624.057 659.025 625.332 662.55 625.332 667.35V690H618.807L618.057 686.925C616.107 688.325 614.107 689.35 612.057 690C610.057 690.6 607.882 690.9 605.532 690.9ZM607.407 683.4C610.807 683.4 613.832 682.65 616.482 681.15V675.225H606.132C604.232 675.225 602.857 675.55 602.007 676.2C601.157 676.8 600.732 677.75 600.732 679.05C600.732 680.5 601.257 681.6 602.307 682.35C603.407 683.05 605.107 683.4 607.407 683.4ZM652.313 690.9C645.613 690.9 639.888 689.425 635.138 686.475L638.363 679.575C640.313 680.825 642.488 681.775 644.888 682.425C647.338 683.075 649.888 683.4 652.538 683.4C657.688 683.4 660.263 682.175 660.263 679.725C660.263 678.725 659.988 678 659.438 677.55C658.888 677.1 657.888 676.8 656.438 676.65L648.188 675.675C644.388 675.225 641.563 674.175 639.713 672.525C637.913 670.825 637.013 668.4 637.013 665.25C637.013 661.45 638.363 658.525 641.063 656.475C643.763 654.425 647.688 653.4 652.838 653.4C658.438 653.4 663.563 654.6 668.213 657L665.363 664.05C661.713 661.95 657.488 660.9 652.688 660.9C648.138 660.9 645.863 662.1 645.863 664.5C645.863 665.45 646.138 666.15 646.688 666.6C647.288 667.05 648.288 667.35 649.688 667.5L657.938 668.475C661.738 668.925 664.538 670 666.338 671.7C668.188 673.35 669.113 675.775 669.113 678.975C669.113 682.775 667.663 685.725 664.763 687.825C661.913 689.875 657.763 690.9 652.313 690.9ZM695.569 690.9C688.869 690.9 683.144 689.425 678.394 686.475L681.619 679.575C683.569 680.825 685.744 681.775 688.144 682.425C690.594 683.075 693.144 683.4 695.794 683.4C700.944 683.4 703.519 682.175 703.519 679.725C703.519 678.725 703.244 678 702.694 677.55C702.144 677.1 701.144 676.8 699.694 676.65L691.444 675.675C687.644 675.225 684.819 674.175 682.969 672.525C681.169 670.825 680.269 668.4 680.269 665.25C680.269 661.45 681.619 658.525 684.319 656.475C687.019 654.425 690.944 653.4 696.094 653.4C701.694 653.4 706.819 654.6 711.469 657L708.619 664.05C704.969 661.95 700.744 660.9 695.944 660.9C691.394 660.9 689.119 662.1 689.119 664.5C689.119 665.45 689.394 666.15 689.944 666.6C690.544 667.05 691.544 667.35 692.944 667.5L701.194 668.475C704.994 668.925 707.794 670 709.594 671.7C711.444 673.35 712.369 675.775 712.369 678.975C712.369 682.775 710.919 685.725 708.019 687.825C705.169 689.875 701.019 690.9 695.569 690.9ZM725.775 690L717.525 654.3H725.4L730.95 679.125L736.35 658.425H742.35L747.75 679.125L753.3 654.3H760.725L752.475 690H744.375L739.125 669.75L733.875 690H725.775ZM782.381 690.9C778.781 690.9 775.606 690.125 772.856 688.575C770.106 686.975 767.956 684.775 766.406 681.975C764.856 679.125 764.081 675.85 764.081 672.15C764.081 668.4 764.856 665.125 766.406 662.325C767.956 659.525 770.106 657.35 772.856 655.8C775.606 654.2 778.781 653.4 782.381 653.4C785.981 653.4 789.156 654.2 791.906 655.8C794.656 657.35 796.806 659.525 798.356 662.325C799.906 665.125 800.681 668.4 800.681 672.15C800.681 675.85 799.906 679.125 798.356 681.975C796.806 684.775 794.656 686.975 791.906 688.575C789.156 690.125 785.981 690.9 782.381 690.9ZM782.381 682.8C785.281 682.8 787.556 681.875 789.206 680.025C790.856 678.125 791.681 675.5 791.681 672.15C791.681 668.8 790.856 666.2 789.206 664.35C787.556 662.45 785.281 661.5 782.381 661.5C779.481 661.5 777.206 662.45 775.556 664.35C773.906 666.2 773.081 668.8 773.081 672.15C773.081 675.5 773.906 678.125 775.556 680.025C777.206 681.875 779.481 682.8 782.381 682.8ZM812.062 690V654.3H818.962L819.862 659.25C821.712 657.2 823.712 655.725 825.862 654.825C828.012 653.875 830.437 653.4 833.137 653.4C836.787 653.4 839.937 654.35 842.587 656.25L839.287 663.9C838.187 663.1 837.062 662.525 835.912 662.175C834.812 661.775 833.612 661.575 832.312 661.575C828.062 661.575 824.262 663.625 820.912 667.725V690H812.062ZM866.343 690.9C861.643 690.9 857.893 689.225 855.093 685.875C852.343 682.475 850.968 677.9 850.968 672.15C850.968 666.4 852.343 661.85 855.093 658.5C857.893 655.1 861.643 653.4 866.343 653.4C867.993 653.4 869.618 653.65 871.218 654.15C872.868 654.6 874.493 655.325 876.093 656.325V636.75H884.943V690H878.418L877.668 687C873.968 689.6 870.193 690.9 866.343 690.9ZM868.593 682.8C871.143 682.8 873.643 682.125 876.093 680.775V663.525C873.643 662.175 871.143 661.5 868.593 661.5C862.793 661.5 859.893 665.05 859.893 672.15C859.893 679.25 862.793 682.8 868.593 682.8Z" fill="black"/>
</g>
<g filter="url(#filter6_i_0_1)">
<rect x="394" y="717" width="651" height="102" rx="15" fill="#D9D9D9"/>
</g>
<g filter="url(#filter7_d_0_1)">
<rect x="544" y="871" width="359" height="117" rx="30" fill="#AFB1C0"/>
</g>
<g filter="url(#filter8_d_0_1)">
<path d="M613.407 947.9C609.907 947.9 606.657 947.425 603.657 946.475C600.657 945.475 597.907 943.925 595.407 941.825L599.982 934.55C601.932 936.25 604.032 937.5 606.282 938.3C608.582 939.1 611.032 939.5 613.632 939.5C619.532 939.5 622.482 937.4 622.482 933.2C622.482 931.6 622.057 930.4 621.207 929.6C620.407 928.75 619.007 928.075 617.007 927.575L609.132 925.625C605.082 924.625 602.082 923.05 600.132 920.9C598.232 918.7 597.282 915.775 597.282 912.125C597.282 907.525 598.807 903.925 601.857 901.325C604.907 898.675 609.182 897.35 614.682 897.35C620.632 897.35 625.907 898.975 630.507 902.225L626.232 909.65C623.032 907.05 619.182 905.75 614.682 905.75C609.132 905.75 606.357 907.725 606.357 911.675C606.357 913.075 606.757 914.2 607.557 915.05C608.407 915.85 609.832 916.5 611.832 917L619.707 918.95C623.757 919.95 626.732 921.55 628.632 923.75C630.582 925.9 631.557 928.9 631.557 932.75C631.557 937.45 629.957 941.15 626.757 943.85C623.607 946.55 619.157 947.9 613.407 947.9ZM653.888 947.9C649.688 947.9 646.463 946.725 644.213 944.375C641.963 941.975 640.838 938.575 640.838 934.175V911.3H649.688V932.825C649.688 935.375 650.163 937.175 651.113 938.225C652.113 939.275 653.813 939.8 656.213 939.8C657.613 939.8 658.938 939.625 660.188 939.275C661.438 938.925 662.688 938.425 663.938 937.775V911.3H672.788V947H666.263L665.513 943.925C663.663 945.325 661.788 946.35 659.888 947C657.988 947.6 655.988 947.9 653.888 947.9ZM702.919 947.9C699.069 947.9 695.294 946.6 691.594 944L690.844 947H684.319V893.75H693.169V913.325C694.769 912.325 696.369 911.6 697.969 911.15C699.619 910.65 701.269 910.4 702.919 910.4C707.619 910.4 711.344 912.1 714.094 915.5C716.894 918.85 718.294 923.4 718.294 929.15C718.294 934.9 716.894 939.475 714.094 942.875C711.344 946.225 707.619 947.9 702.919 947.9ZM700.669 939.8C706.469 939.8 709.369 936.25 709.369 929.15C709.369 922.05 706.469 918.5 700.669 918.5C698.169 918.5 695.669 919.175 693.169 920.525V937.775C695.669 939.125 698.169 939.8 700.669 939.8ZM725.175 947V911.3H730.425L731.1 914C733.65 911.6 736.4 910.4 739.35 910.4C742.45 910.4 744.725 911.6 746.175 914C748.575 911.6 751.225 910.4 754.125 910.4C756.675 910.4 758.675 911.225 760.125 912.875C761.625 914.475 762.375 916.675 762.375 919.475V947H754.725V920.525C754.725 918.725 753.75 917.825 751.8 917.825C750.25 917.825 748.85 918.375 747.6 919.475V947H739.95V920.525C739.95 918.725 738.975 917.825 737.025 917.825C735.525 917.825 734.125 918.35 732.825 919.4V947H725.175ZM782.456 947V919.25H768.656V911.3H791.306V939.05H805.106V947H782.456ZM786.131 904.85C784.431 904.85 783.006 904.275 781.856 903.125C780.706 901.975 780.131 900.55 780.131 898.85C780.131 897.15 780.706 895.725 781.856 894.575C783.006 893.425 784.431 892.85 786.131 892.85C787.831 892.85 789.256 893.425 790.406 894.575C791.556 895.725 792.131 897.15 792.131 898.85C792.131 900.55 791.556 901.975 790.406 903.125C789.256 904.275 787.831 904.85 786.131 904.85ZM836.137 947.9C826.937 947.9 822.337 943.325 822.337 934.175V919.25H811.912V911.3H822.337V901.175L831.187 897.35V911.3H844.687V919.25H831.187V932.825C831.187 935.375 831.662 937.175 832.612 938.225C833.612 939.275 835.312 939.8 837.712 939.8C840.662 939.8 843.512 938.95 846.262 937.25L848.512 944.75C844.912 946.85 840.787 947.9 836.137 947.9Z" fill="black"/>
</g>
</g>
<defs>
<filter id="filter0_d_0_1" x="20.8885" y="44.46" width="243.727" height="76.08" filterUnits="userSpaceOnUse" color-interpolation-filters="sRGB">
<feFlood flood-opacity="0" result="BackgroundImageFix"/>
<feColorMatrix in="SourceAlpha" type="matrix" values="0 0 0 0 0 0 0 0 0 0 0 0 0 0 0 0 0 0 127 0" result="hardAlpha"/>
<feOffset dy="6"/>
<feGaussianBlur stdDeviation="2"/>
<feComposite in2="hardAlpha" operator="out"/>
<feColorMatrix type="matrix" values="0 0 0 0 0.38745 0 0 0 0 0.478333 0 0 0 0 0.465798 0 0 0 1 0"/>
<feBlend mode="normal" in2="BackgroundImageFix" result="effect1_dropShadow_0_1"/>
<feBlend mode="normal" in="SourceGraphic" in2="effect1_dropShadow_0_1" result="shape"/>
</filter>
<filter id="filter1_d_0_1" x="547.152" y="207.25" width="345.741" height="63.65" filterUnits="userSpaceOnUse" color-interpolation-filters="sRGB">
<feFlood flood-opacity="0" result="BackgroundImageFix"/>
<feColorMatrix in="SourceAlpha" type="matrix" values="0 0 0 0 0 0 0 0 0 0 0 0 0 0 0 0 0 0 127 0" result="hardAlpha"/>
<feOffset dy="10"/>
<feGaussianBlur stdDeviation="2"/>
<feComposite in2="hardAlpha" operator="out"/>
<feColorMatrix type="matrix" values="0 0 0 0 0.894118 0 0 0 0 0.886275 0 0 0 0 0.913725 0 0 0 1 0"/>
<feBlend mode="normal" in2="BackgroundImageFix" result="effect1_dropShadow_0_1"/>
<feBlend mode="normal" in="SourceGraphic" in2="effect1_dropShadow_0_1" result="shape"/>
</filter>
<filter id="filter2_i_0_1" x="396" y="283" width="651" height="104" filterUnits="userSpaceOnUse" color-interpolation-filters="sRGB">
<feFlood flood-opacity="0" result="BackgroundImageFix"/>
<feBlend mode="normal" in="SourceGraphic" in2="BackgroundImageFix" result="shape"/>
<feColorMatrix in="SourceAlpha" type="matrix" values="0 0 0 0 0 0 0 0 0 0 0 0 0 0 0 0 0 0 127 0" result="hardAlpha"/>
<feOffset dy="6"/>
<feGaussianBlur stdDeviation="1"/>
<feComposite in2="hardAlpha" operator="arithmetic" k2="-1" k3="1"/>
<feColorMatrix type="matrix" values="0 0 0 0 0 0 0 0 0 0 0 0 0 0 0 0 0 0 0.25 0"/>
<feBlend mode="normal" in2="shape" result="effect1_innerShadow_0_1"/>
</filter>
<filter id="filter3_d_0_1" x="614.135" y="426.85" width="215.823" height="69.05" filterUnits="userSpaceOnUse" color-interpolation-filters="sRGB">
<feFlood flood-opacity="0" result="BackgroundImageFix"/>
<feColorMatrix in="SourceAlpha" type="matrix" values="0 0 0 0 0 0 0 0 0 0 0 0 0 0 0 0 0 0 127 0" result="hardAlpha"/>
<feOffset dy="10"/>
<feGaussianBlur stdDeviation="2"/>
<feComposite in2="hardAlpha" operator="out"/>
<feColorMatrix type="matrix" values="0 0 0 0 0.894118 0 0 0 0 0.886275 0 0 0 0 0.913725 0 0 0 1 0"/>
<feBlend mode="normal" in2="BackgroundImageFix" result="effect1_dropShadow_0_1"/>
<feBlend mode="normal" in="SourceGraphic" in2="effect1_dropShadow_0_1" result="shape"/>
</filter>
<filter id="filter4_i_0_1" x="396" y="500" width="651" height="104" filterUnits="userSpaceOnUse" color-interpolation-filters="sRGB">
<feFlood flood-opacity="0" result="BackgroundImageFix"/>
<feBlend mode="normal" in="SourceGraphic" in2="BackgroundImageFix" result="shape"/>
<feColorMatrix in="SourceAlpha" type="matrix" values="0 0 0 0 0 0 0 0 0 0 0 0 0 0 0 0 0 0 127 0" result="hardAlpha"/>
<feOffset dy="6"/>
<feGaussianBlur stdDeviation="1"/>
<feComposite in2="hardAlpha" operator="arithmetic" k2="-1" k3="1"/>
<feColorMatrix type="matrix" values="0 0 0 0 0 0 0 0 0 0 0 0 0 0 0 0 0 0 0.25 0"/>
<feBlend mode="normal" in2="shape" result="effect1_innerShadow_0_1"/>
</filter>
<filter id="filter5_d_0_1" x="546.277" y="636.75" width="342.666" height="68.15" filterUnits="userSpaceOnUse" color-interpolation-filters="sRGB">
<feFlood flood-opacity="0" result="BackgroundImageFix"/>
<feColorMatrix in="SourceAlpha" type="matrix" values="0 0 0 0 0 0 0 0 0 0 0 0 0 0 0 0 0 0 127 0" result="hardAlpha"/>
<feOffset dy="10"/>
<feGaussianBlur stdDeviation="2"/>
<feComposite in2="hardAlpha" operator="out"/>
<feColorMatrix type="matrix" values="0 0 0 0 0.894118 0 0 0 0 0.886275 0 0 0 0 0.913725 0 0 0 1 0"/>
<feBlend mode="normal" in2="BackgroundImageFix" result="effect1_dropShadow_0_1"/>
<feBlend mode="normal" in="SourceGraphic" in2="effect1_dropShadow_0_1" result="shape"/>
</filter>
<filter id="filter6_i_0_1" x="394" y="717" width="651" height="104" filterUnits="userSpaceOnUse" color-interpolation-filters="sRGB">
<feFlood flood-opacity="0" result="BackgroundImageFix"/>
<feBlend mode="normal" in="SourceGraphic" in2="BackgroundImageFix" result="shape"/>
<feColorMatrix in="SourceAlpha" type="matrix" values="0 0 0 0 0 0 0 0 0 0 0 0 0 0 0 0 0 0 127 0" result="hardAlpha"/>
<feOffset dy="6"/>
<feGaussianBlur stdDeviation="1"/>
<feComposite in2="hardAlpha" operator="arithmetic" k2="-1" k3="1"/>
<feColorMatrix type="matrix" values="0 0 0 0 0 0 0 0 0 0 0 0 0 0 0 0 0 0 0.25 0"/>
<feBlend mode="normal" in2="shape" result="effect1_innerShadow_0_1"/>
</filter>
<filter id="filter7_d_0_1" x="540" y="871" width="369" height="130" filterUnits="userSpaceOnUse" color-interpolation-filters="sRGB">
<feFlood flood-opacity="0" result="BackgroundImageFix"/>
<feColorMatrix in="SourceAlpha" type="matrix" values="0 0 0 0 0 0 0 0 0 0 0 0 0 0 0 0 0 0 127 0" result="hardAlpha"/>
<feMorphology radius="1" operator="dilate" in="SourceAlpha" result="effect1_dropShadow_0_1"/>
<feOffset dx="1" dy="8"/>
<feGaussianBlur stdDeviation="2"/>
<feComposite in2="hardAlpha" operator="out"/>
<feColorMatrix type="matrix" values="0 0 0 0 0.894118 0 0 0 0 0.886275 0 0 0 0 0.909804 0 0 0 1 0"/>
<feBlend mode="normal" in2="BackgroundImageFix" result="effect1_dropShadow_0_1"/>
<feBlend mode="normal" in="SourceGraphic" in2="effect1_dropShadow_0_1" result="shape"/>
</filter>
<filter id="filter8_d_0_1" x="591.407" y="892.85" width="261.104" height="65.05" filterUnits="userSpaceOnUse" color-interpolation-filters="sRGB">
<feFlood flood-opacity="0" result="BackgroundImageFix"/>
<feColorMatrix in="SourceAlpha" type="matrix" values="0 0 0 0 0 0 0 0 0 0 0 0 0 0 0 0 0 0 127 0" result="hardAlpha"/>
<feOffset dy="6"/>
<feGaussianBlur stdDeviation="2"/>
<feComposite in2="hardAlpha" operator="out"/>
<feColorMatrix type="matrix" values="0 0 0 0 0.626383 0 0 0 0 0.633672 0 0 0 0 0.688333 0 0 0 1 0"/>
<feBlend mode="normal" in2="BackgroundImageFix" result="effect1_dropShadow_0_1"/>
<feBlend mode="normal" in="SourceGraphic" in2="effect1_dropShadow_0_1" result="shape"/>
</filter>
<clipPath id="clip0_0_1">
<rect width="1440" height="1024" fill="white"/>
</clipPath>
</defs>
</svg>
