<svg width="1448" height="1032" viewBox="0 0 1448 1032" fill="none" xmlns="http://www.w3.org/2000/svg">
<g clip-path="url(#clip0_1_2)" filter="url(#filter0_d_1_2)">
<rect width="1440" height="1024" transform="translate(4)" fill="white"/>
<rect x="4" width="1438" height="168" fill="#799692"/>
<g filter="url(#filter1_d_1_2)">
<path d="M569.627 417V287H655.027V309H593.627V339.8H645.427V361.8H593.627V395H655.027V417H569.627ZM718.192 419.4C705.659 419.4 695.659 414.933 688.192 406C680.859 396.933 677.192 384.733 677.192 369.4C677.192 354.067 680.859 341.933 688.192 333C695.659 323.933 705.659 319.4 718.192 319.4C722.592 319.4 726.926 320.067 731.192 321.4C735.592 322.6 739.926 324.533 744.192 327.2V275H767.792V417H750.392L748.392 409C738.526 415.933 728.459 419.4 718.192 419.4ZM724.192 397.8C730.992 397.8 737.659 396 744.192 392.4V346.4C737.659 342.8 730.992 341 724.192 341C708.726 341 700.992 350.467 700.992 369.4C700.992 388.333 708.726 397.8 724.192 397.8ZM832.158 419.4C820.958 419.4 812.358 416.267 806.358 410C800.358 403.6 797.358 394.533 797.358 382.8V321.8H820.958V379.2C820.958 386 822.224 390.8 824.758 393.6C827.424 396.4 831.958 397.8 838.358 397.8C842.091 397.8 845.624 397.333 848.958 396.4C852.291 395.467 855.624 394.133 858.958 392.4V321.8H882.558V417H865.158L863.158 408.8C858.224 412.533 853.224 415.267 848.158 417C843.091 418.6 837.758 419.4 832.158 419.4Z" fill="black"/>
</g>
<g filter="url(#filter2_d_1_2)">
<path d="M557.444 637.4C539.844 637.4 526.377 631.667 517.044 620.2C507.844 608.6 503.244 591.867 503.244 570C503.244 548.133 507.844 531.467 517.044 520C526.377 508.4 539.844 502.6 557.444 502.6C572.11 502.6 584.777 507.333 595.444 516.8L583.244 535.4C575.51 528.467 566.977 525 557.644 525C537.644 525 527.644 540 527.644 570C527.644 600 537.644 615 557.644 615C562.977 615 567.91 613.933 572.444 611.8C576.977 609.667 581.51 606.333 586.044 601.8L599.644 619.2C593.51 625.467 587.11 630.067 580.444 633C573.777 635.933 566.11 637.4 557.444 637.4ZM623.809 635V493H647.409V545.2C655.676 540 664.609 537.4 674.209 537.4C685.409 537.4 694.009 540.6 700.009 547C706.009 553.267 709.009 562.267 709.009 574V635H685.409V577.6C685.409 570.8 684.076 566 681.409 563.2C678.876 560.4 674.409 559 668.009 559C664.276 559 660.743 559.467 657.409 560.4C654.209 561.2 650.876 562.533 647.409 564.4V635H623.809ZM771.175 637.4C759.575 637.4 750.508 634.733 743.975 629.4C737.575 623.933 734.375 616.333 734.375 606.6C734.375 597.267 737.442 590.133 743.575 585.2C749.842 580.267 758.842 577.8 770.575 577.8H800.375V576C800.375 569.333 798.775 564.6 795.575 561.8C792.375 558.867 787.042 557.4 779.575 557.4C767.842 557.4 756.908 560.333 746.775 566.2L739.775 547.2C752.175 540.667 766.308 537.4 782.175 537.4C796.575 537.4 807.108 540.4 813.775 546.4C820.575 552.4 823.975 561.8 823.975 574.6V635H806.575L804.575 626.8C799.375 630.533 794.042 633.267 788.575 635C783.242 636.6 777.442 637.4 771.175 637.4ZM776.175 617.4C785.242 617.4 793.308 615.4 800.375 611.4V595.6H772.775C767.708 595.6 764.042 596.467 761.775 598.2C759.508 599.8 758.375 602.333 758.375 605.8C758.375 609.667 759.775 612.6 762.575 614.6C765.508 616.467 770.042 617.4 776.175 617.4ZM913.141 637.4C888.607 637.4 876.341 625.2 876.341 600.8V561H848.541V539.8H876.341V512.8L899.941 502.6V539.8H935.941V561H899.941V597.2C899.941 604 901.207 608.8 903.741 611.6C906.407 614.4 910.941 615.8 917.341 615.8C925.207 615.8 932.807 613.533 940.141 609L946.141 629C936.541 634.6 925.541 637.4 913.141 637.4Z" fill="black"/>
</g>
<g filter="url(#filter3_d_1_2)">
<rect x="40" y="41" width="224" height="84" rx="30" fill="#AFB1C0"/>
</g>
<g filter="url(#filter4_d_1_2)">
<rect x="289" y="41" width="232" height="84" rx="30" fill="#AFB1C0"/>
</g>
<g filter="url(#filter5_d_1_2)">
<ellipse cx="723" cy="840" rx="61" ry="60" fill="#948DA5"/>
</g>
<g filter="url(#filter6_d_1_2)">
<rect x="863" y="780" width="293" height="124" rx="30" fill="#AFB1C0"/>
</g>
<g filter="url(#filter7_d_1_2)">
<rect x="291" y="776" width="293" height="124" rx="30" fill="#799692"/>
</g>
<g filter="url(#filter8_d_1_2)">
<path d="M100.336 94.54C98.0562 94.54 96.0912 93.94 94.4412 92.74C92.7912 91.51 91.5162 89.755 90.6162 87.475C89.7462 85.195 89.3112 82.495 89.3112 79.375C89.3112 74.455 90.3462 70.705 92.4162 68.125C94.5162 65.515 97.5462 64.21 101.506 64.21C104.806 64.21 107.656 65.275 110.056 67.405L107.311 71.59C105.571 70.03 103.651 69.25 101.551 69.25C97.0512 69.25 94.8012 72.625 94.8012 79.375C94.8012 86.125 97.0062 89.5 101.416 89.5C102.916 89.5 104.251 89.065 105.421 88.195V81.895H100.606V76.945H110.821V94H107.221L106.726 92.02C105.796 92.89 104.806 93.535 103.756 93.955C102.706 94.345 101.566 94.54 100.336 94.54ZM124.21 94.54C121.69 94.54 119.755 93.835 118.405 92.425C117.055 90.985 116.38 88.945 116.38 86.305V72.58H121.69V85.495C121.69 87.025 121.975 88.105 122.545 88.735C123.145 89.365 124.165 89.68 125.605 89.68C126.445 89.68 127.24 89.575 127.99 89.365C128.74 89.155 129.49 88.855 130.24 88.465V72.58H135.55V94H131.635L131.185 92.155C130.075 92.995 128.95 93.61 127.81 94C126.67 94.36 125.47 94.54 124.21 94.54ZM153.213 94.54C149.493 94.54 146.568 93.535 144.438 91.525C142.308 89.515 141.243 86.77 141.243 83.29C141.243 81.04 141.708 79.075 142.638 77.395C143.568 75.715 144.858 74.41 146.508 73.48C148.158 72.52 150.078 72.04 152.268 72.04C154.398 72.04 156.243 72.49 157.803 73.39C159.393 74.26 160.623 75.49 161.493 77.08C162.363 78.67 162.798 80.53 162.798 82.66C162.798 83.05 162.783 83.455 162.753 83.875C162.723 84.265 162.663 84.685 162.573 85.135H146.643C147.213 88.405 149.418 90.04 153.258 90.04C155.508 90.04 157.713 89.35 159.873 87.97L161.853 91.885C160.473 92.815 159.093 93.49 157.713 93.91C156.333 94.33 154.833 94.54 153.213 94.54ZM146.688 81.13H157.578C157.068 78.07 155.283 76.54 152.223 76.54C149.193 76.54 147.348 78.07 146.688 81.13ZM177.672 94.54C173.652 94.54 170.217 93.655 167.367 91.885L169.302 87.745C170.472 88.495 171.777 89.065 173.217 89.455C174.687 89.845 176.217 90.04 177.807 90.04C180.897 90.04 182.442 89.305 182.442 87.835C182.442 87.235 182.277 86.8 181.947 86.53C181.617 86.26 181.017 86.08 180.147 85.99L175.197 85.405C172.917 85.135 171.222 84.505 170.112 83.515C169.032 82.495 168.492 81.04 168.492 79.15C168.492 76.87 169.302 75.115 170.922 73.885C172.542 72.655 174.897 72.04 177.987 72.04C181.347 72.04 184.422 72.76 187.212 74.2L185.502 78.43C183.312 77.17 180.777 76.54 177.897 76.54C175.167 76.54 173.802 77.26 173.802 78.7C173.802 79.27 173.967 79.69 174.297 79.96C174.657 80.23 175.257 80.41 176.097 80.5L181.047 81.085C183.327 81.355 185.007 82 186.087 83.02C187.197 84.01 187.752 85.465 187.752 87.385C187.752 89.665 186.882 91.435 185.142 92.695C183.432 93.925 180.942 94.54 177.672 94.54ZM207.305 94.54C201.785 94.54 199.025 91.795 199.025 86.305V77.35H192.77V72.58H199.025V66.505L204.335 64.21V72.58H212.435V77.35H204.335V85.495C204.335 87.025 204.62 88.105 205.19 88.735C205.79 89.365 206.81 89.68 208.25 89.68C210.02 89.68 211.73 89.17 213.38 88.15L214.73 92.65C212.57 93.91 210.095 94.54 207.305 94.54Z" fill="black"/>
</g>
<g filter="url(#filter9_d_1_2)">
<path d="M305.091 95L314.721 65.75H320.301L329.931 95H324.261L322.191 88.52H312.561L310.491 95H305.091ZM314.091 83.57H320.661L317.376 72.815L314.091 83.57ZM344.894 95.54C342.584 95.54 340.319 94.76 338.099 93.2L337.649 95H333.734V63.05H339.044V74.795C340.004 74.195 340.964 73.76 341.924 73.49C342.914 73.19 343.904 73.04 344.894 73.04C347.714 73.04 349.949 74.06 351.599 76.1C353.279 78.11 354.119 80.84 354.119 84.29C354.119 87.74 353.279 90.485 351.599 92.525C349.949 94.535 347.714 95.54 344.894 95.54ZM343.544 90.68C347.024 90.68 348.764 88.55 348.764 84.29C348.764 80.03 347.024 77.9 343.544 77.9C342.044 77.9 340.544 78.305 339.044 79.115V89.465C340.544 90.275 342.044 90.68 343.544 90.68ZM369.218 95.54C367.058 95.54 365.153 95.075 363.503 94.145C361.853 93.185 360.563 91.865 359.633 90.185C358.703 88.475 358.238 86.51 358.238 84.29C358.238 82.04 358.703 80.075 359.633 78.395C360.563 76.715 361.853 75.41 363.503 74.48C365.153 73.52 367.058 73.04 369.218 73.04C371.378 73.04 373.283 73.52 374.933 74.48C376.583 75.41 377.873 76.715 378.803 78.395C379.733 80.075 380.198 82.04 380.198 84.29C380.198 86.51 379.733 88.475 378.803 90.185C377.873 91.865 376.583 93.185 374.933 94.145C373.283 95.075 371.378 95.54 369.218 95.54ZM369.218 90.68C370.958 90.68 372.323 90.125 373.313 89.015C374.303 87.875 374.798 86.3 374.798 84.29C374.798 82.28 374.303 80.72 373.313 79.61C372.323 78.47 370.958 77.9 369.218 77.9C367.478 77.9 366.113 78.47 365.123 79.61C364.133 80.72 363.638 82.28 363.638 84.29C363.638 86.3 364.133 87.875 365.123 89.015C366.113 90.125 367.478 90.68 369.218 90.68ZM393.136 95.54C390.616 95.54 388.681 94.835 387.331 93.425C385.981 91.985 385.306 89.945 385.306 87.305V73.58H390.616V86.495C390.616 88.025 390.901 89.105 391.471 89.735C392.071 90.365 393.091 90.68 394.531 90.68C395.371 90.68 396.166 90.575 396.916 90.365C397.666 90.155 398.416 89.855 399.166 89.465V73.58H404.476V95H400.561L400.111 93.155C399.001 93.995 397.876 94.61 396.736 95C395.596 95.36 394.396 95.54 393.136 95.54ZM424.525 95.54C419.005 95.54 416.245 92.795 416.245 87.305V78.35H409.99V73.58H416.245V67.505L421.555 65.21V73.58H429.655V78.35H421.555V86.495C421.555 88.025 421.84 89.105 422.41 89.735C423.01 90.365 424.03 90.68 425.47 90.68C427.24 90.68 428.95 90.17 430.6 89.15L431.95 93.65C429.79 94.91 427.315 95.54 424.525 95.54ZM472.632 95.54C469.332 95.54 466.812 94.7 465.072 93.02C463.332 91.31 462.462 88.835 462.462 85.595V65.75H467.862V85.235C467.862 88.745 469.467 90.5 472.677 90.5C475.887 90.5 477.492 88.745 477.492 85.235V65.75H482.802V85.595C482.802 88.835 481.932 91.31 480.192 93.02C478.452 94.7 475.932 95.54 472.632 95.54ZM498.306 95.54C494.286 95.54 490.851 94.655 488.001 92.885L489.936 88.745C491.106 89.495 492.411 90.065 493.851 90.455C495.321 90.845 496.851 91.04 498.441 91.04C501.531 91.04 503.076 90.305 503.076 88.835C503.076 88.235 502.911 87.8 502.581 87.53C502.251 87.26 501.651 87.08 500.781 86.99L495.831 86.405C493.551 86.135 491.856 85.505 490.746 84.515C489.666 83.495 489.126 82.04 489.126 80.15C489.126 77.87 489.936 76.115 491.556 74.885C493.176 73.655 495.531 73.04 498.621 73.04C501.981 73.04 505.056 73.76 507.846 75.2L506.136 79.43C503.946 78.17 501.411 77.54 498.531 77.54C495.801 77.54 494.436 78.26 494.436 79.7C494.436 80.27 494.601 80.69 494.931 80.96C495.291 81.23 495.891 81.41 496.731 81.5L501.681 82.085C503.961 82.355 505.641 83 506.721 84.02C507.831 85.01 508.386 86.465 508.386 88.385C508.386 90.665 507.516 92.435 505.776 93.695C504.066 94.925 501.576 95.54 498.306 95.54Z" fill="black"/>
</g>
<g filter="url(#filter10_d_1_2)">
<path d="M914.705 858.66C912.138 858.66 909.755 858.312 907.555 857.615C905.355 856.882 903.338 855.745 901.505 854.205L904.86 848.87C906.29 850.117 907.83 851.033 909.48 851.62C911.167 852.207 912.963 852.5 914.87 852.5C919.197 852.5 921.36 850.96 921.36 847.88C921.36 846.707 921.048 845.827 920.425 845.24C919.838 844.617 918.812 844.122 917.345 843.755L911.57 842.325C908.6 841.592 906.4 840.437 904.97 838.86C903.577 837.247 902.88 835.102 902.88 832.425C902.88 829.052 903.998 826.412 906.235 824.505C908.472 822.562 911.607 821.59 915.64 821.59C920.003 821.59 923.872 822.782 927.245 825.165L924.11 830.61C921.763 828.703 918.94 827.75 915.64 827.75C911.57 827.75 909.535 829.198 909.535 832.095C909.535 833.122 909.828 833.947 910.415 834.57C911.038 835.157 912.083 835.633 913.55 836L919.325 837.43C922.295 838.163 924.477 839.337 925.87 840.95C927.3 842.527 928.015 844.727 928.015 847.55C928.015 850.997 926.842 853.71 924.495 855.69C922.185 857.67 918.922 858.66 914.705 858.66ZM943.444 858V837.65H933.324V831.82H949.934V852.17H960.054V858H943.444ZM946.139 827.09C944.893 827.09 943.848 826.668 943.004 825.825C942.161 824.982 941.739 823.937 941.739 822.69C941.739 821.443 942.161 820.398 943.004 819.555C943.848 818.712 944.893 818.29 946.139 818.29C947.386 818.29 948.431 818.712 949.274 819.555C950.118 820.398 950.539 821.443 950.539 822.69C950.539 823.937 950.118 824.982 949.274 825.825C948.431 826.668 947.386 827.09 946.139 827.09ZM977.354 870.21C975.374 870.21 973.467 869.972 971.634 869.495C969.837 869.055 968.059 868.322 966.299 867.295L968.389 861.96C969.672 862.73 971.047 863.298 972.514 863.665C973.98 864.068 975.447 864.27 976.914 864.27C979.224 864.27 980.91 863.793 981.974 862.84C983.074 861.923 983.624 860.512 983.624 858.605V855.965C982.45 856.698 981.259 857.248 980.049 857.615C978.875 857.945 977.684 858.11 976.474 858.11C974.2 858.11 972.202 857.542 970.479 856.405C968.792 855.268 967.49 853.692 966.574 851.675C965.657 849.658 965.199 847.312 965.199 844.635C965.199 841.958 965.657 839.612 966.574 837.595C967.49 835.578 968.792 834.002 970.479 832.865C972.202 831.728 974.2 831.16 976.474 831.16C979.297 831.16 982.065 832.113 984.779 834.02L985.329 831.82H990.114V859.045C990.114 862.675 989.014 865.443 986.814 867.35C984.65 869.257 981.497 870.21 977.354 870.21ZM978.124 852.17C979.994 852.17 981.827 851.675 983.624 850.685V838.585C981.827 837.595 979.994 837.1 978.124 837.1C975.997 837.1 974.402 837.76 973.339 839.08C972.275 840.363 971.744 842.215 971.744 844.635C971.744 847.055 972.275 848.925 973.339 850.245C974.402 851.528 975.997 852.17 978.124 852.17ZM998.503 858V831.82H1003.29L1003.84 834.075C1005.23 833.048 1006.61 832.315 1007.96 831.875C1009.36 831.398 1010.82 831.16 1012.36 831.16C1015.44 831.16 1017.81 832.04 1019.46 833.8C1021.11 835.523 1021.93 837.998 1021.93 841.225V858H1015.44V842.215C1015.44 840.345 1015.08 839.025 1014.34 838.255C1013.65 837.485 1012.42 837.1 1010.66 837.1C1009.63 837.1 1008.66 837.228 1007.74 837.485C1006.86 837.705 1005.95 838.072 1004.99 838.585V858H998.503ZM1030.65 845.02V840.4H1052.65V845.02H1030.65ZM1073.31 858.66C1069.27 858.66 1066.19 857.633 1064.07 855.58C1061.94 853.49 1060.88 850.465 1060.88 846.505V822.25H1067.48V846.065C1067.48 850.355 1069.44 852.5 1073.36 852.5C1077.28 852.5 1079.25 850.355 1079.25 846.065V822.25H1085.74V846.505C1085.74 850.465 1084.67 853.49 1082.55 855.58C1080.42 857.633 1077.34 858.66 1073.31 858.66ZM1093.19 869.55V831.82H1097.98L1098.53 834.02C1101.24 832.113 1104.01 831.16 1106.83 831.16C1110.28 831.16 1113.01 832.407 1115.03 834.9C1117.08 837.357 1118.11 840.693 1118.11 844.91C1118.11 849.127 1117.08 852.482 1115.03 854.975C1113.01 857.432 1110.28 858.66 1106.83 858.66C1105.62 858.66 1104.41 858.477 1103.2 858.11C1102.03 857.78 1100.85 857.248 1099.68 856.515V869.55H1093.19ZM1105.18 852.72C1109.43 852.72 1111.56 850.117 1111.56 844.91C1111.56 839.703 1109.43 837.1 1105.18 837.1C1103.35 837.1 1101.51 837.595 1099.68 838.585V851.235C1101.51 852.225 1103.35 852.72 1105.18 852.72Z" fill="black"/>
</g>
<g filter="url(#filter11_d_1_2)">
<path d="M349.607 856V813.75H357.407V848.85H377.362V856H349.607ZM399.542 856.78C396.422 856.78 393.671 856.108 391.287 854.765C388.904 853.378 387.041 851.472 385.697 849.045C384.354 846.575 383.682 843.737 383.682 840.53C383.682 837.28 384.354 834.442 385.697 832.015C387.041 829.588 388.904 827.703 391.287 826.36C393.671 824.973 396.422 824.28 399.542 824.28C402.662 824.28 405.414 824.973 407.797 826.36C410.181 827.703 412.044 829.588 413.387 832.015C414.731 834.442 415.402 837.28 415.402 840.53C415.402 843.737 414.731 846.575 413.387 849.045C412.044 851.472 410.181 853.378 407.797 854.765C405.414 856.108 402.662 856.78 399.542 856.78ZM399.542 849.76C402.056 849.76 404.027 848.958 405.457 847.355C406.887 845.708 407.602 843.433 407.602 840.53C407.602 837.627 406.887 835.373 405.457 833.77C404.027 832.123 402.056 831.3 399.542 831.3C397.029 831.3 395.057 832.123 393.627 833.77C392.197 835.373 391.482 837.627 391.482 840.53C391.482 843.433 392.197 845.708 393.627 847.355C395.057 848.958 397.029 849.76 399.542 849.76ZM435.827 870.43C433.487 870.43 431.234 870.148 429.067 869.585C426.944 869.065 424.842 868.198 422.762 866.985L425.232 860.68C426.749 861.59 428.374 862.262 430.107 862.695C431.841 863.172 433.574 863.41 435.307 863.41C438.037 863.41 440.031 862.847 441.287 861.72C442.587 860.637 443.237 858.968 443.237 856.715V853.595C441.851 854.462 440.442 855.112 439.012 855.545C437.626 855.935 436.217 856.13 434.787 856.13C432.101 856.13 429.739 855.458 427.702 854.115C425.709 852.772 424.171 850.908 423.087 848.525C422.004 846.142 421.462 843.368 421.462 840.205C421.462 837.042 422.004 834.268 423.087 831.885C424.171 829.502 425.709 827.638 427.702 826.295C429.739 824.952 432.101 824.28 434.787 824.28C438.124 824.28 441.396 825.407 444.602 827.66L445.252 825.06H450.907V857.235C450.907 861.525 449.607 864.797 447.007 867.05C444.451 869.303 440.724 870.43 435.827 870.43ZM436.737 849.11C438.947 849.11 441.114 848.525 443.237 847.355V833.055C441.114 831.885 438.947 831.3 436.737 831.3C434.224 831.3 432.339 832.08 431.082 833.64C429.826 835.157 429.197 837.345 429.197 840.205C429.197 843.065 429.826 845.275 431.082 846.835C432.339 848.352 434.224 849.11 436.737 849.11ZM470.618 856V831.95H458.658V825.06H478.288V849.11H490.248V856H470.618ZM473.803 819.47C472.329 819.47 471.094 818.972 470.098 817.975C469.101 816.978 468.603 815.743 468.603 814.27C468.603 812.797 469.101 811.562 470.098 810.565C471.094 809.568 472.329 809.07 473.803 809.07C475.276 809.07 476.511 809.568 477.508 810.565C478.504 811.562 479.003 812.797 479.003 814.27C479.003 815.743 478.504 816.978 477.508 817.975C476.511 818.972 475.276 819.47 473.803 819.47ZM498.323 856V825.06H503.978L504.628 827.725C506.274 826.512 507.899 825.645 509.503 825.125C511.149 824.562 512.883 824.28 514.703 824.28C518.343 824.28 521.138 825.32 523.088 827.4C525.038 829.437 526.013 832.362 526.013 836.175V856H518.343V837.345C518.343 835.135 517.909 833.575 517.043 832.665C516.219 831.755 514.768 831.3 512.688 831.3C511.474 831.3 510.326 831.452 509.243 831.755C508.203 832.015 507.119 832.448 505.993 833.055V856H498.323Z" fill="black"/>
</g>
</g>
<defs>
<filter id="filter0_d_1_2" x="0" y="0" width="1448" height="1032" filterUnits="userSpaceOnUse" color-interpolation-filters="sRGB">
<feFlood flood-opacity="0" result="BackgroundImageFix"/>
<feColorMatrix in="SourceAlpha" type="matrix" values="0 0 0 0 0 0 0 0 0 0 0 0 0 0 0 0 0 0 127 0" result="hardAlpha"/>
<feOffset dy="4"/>
<feGaussianBlur stdDeviation="2"/>
<feComposite in2="hardAlpha" operator="out"/>
<feColorMatrix type="matrix" values="0 0 0 0 0 0 0 0 0 0 0 0 0 0 0 0 0 0 0.25 0"/>
<feBlend mode="normal" in2="BackgroundImageFix" result="effect1_dropShadow_1_2"/>
<feBlend mode="normal" in="SourceGraphic" in2="effect1_dropShadow_1_2" result="shape"/>
</filter>
<filter id="filter1_d_1_2" x="565.627" y="275" width="320.931" height="168.4" filterUnits="userSpaceOnUse" color-interpolation-filters="sRGB">
<feFlood flood-opacity="0" result="BackgroundImageFix"/>
<feColorMatrix in="SourceAlpha" type="matrix" values="0 0 0 0 0 0 0 0 0 0 0 0 0 0 0 0 0 0 127 0" result="hardAlpha"/>
<feOffset dy="20"/>
<feGaussianBlur stdDeviation="2"/>
<feComposite in2="hardAlpha" operator="out"/>
<feColorMatrix type="matrix" values="0 0 0 0 0.894118 0 0 0 0 0.886275 0 0 0 0 0.913725 0 0 0 1 0"/>
<feBlend mode="normal" in2="BackgroundImageFix" result="effect1_dropShadow_1_2"/>
<feBlend mode="normal" in="SourceGraphic" in2="effect1_dropShadow_1_2" result="shape"/>
</filter>
<filter id="filter2_d_1_2" x="499.244" y="493" width="450.897" height="168.4" filterUnits="userSpaceOnUse" color-interpolation-filters="sRGB">
<feFlood flood-opacity="0" result="BackgroundImageFix"/>
<feColorMatrix in="SourceAlpha" type="matrix" values="0 0 0 0 0 0 0 0 0 0 0 0 0 0 0 0 0 0 127 0" result="hardAlpha"/>
<feOffset dy="20"/>
<feGaussianBlur stdDeviation="2"/>
<feComposite in2="hardAlpha" operator="out"/>
<feColorMatrix type="matrix" values="0 0 0 0 0.894118 0 0 0 0 0.886275 0 0 0 0 0.913725 0 0 0 1 0"/>
<feBlend mode="normal" in2="BackgroundImageFix" result="effect1_dropShadow_1_2"/>
<feBlend mode="normal" in="SourceGraphic" in2="effect1_dropShadow_1_2" result="shape"/>
</filter>
<filter id="filter3_d_1_2" x="36" y="41" width="234" height="97" filterUnits="userSpaceOnUse" color-interpolation-filters="sRGB">
<feFlood flood-opacity="0" result="BackgroundImageFix"/>
<feColorMatrix in="SourceAlpha" type="matrix" values="0 0 0 0 0 0 0 0 0 0 0 0 0 0 0 0 0 0 127 0" result="hardAlpha"/>
<feMorphology radius="1" operator="dilate" in="SourceAlpha" result="effect1_dropShadow_1_2"/>
<feOffset dx="1" dy="8"/>
<feGaussianBlur stdDeviation="2"/>
<feComposite in2="hardAlpha" operator="out"/>
<feColorMatrix type="matrix" values="0 0 0 0 0.381861 0 0 0 0 0.491667 0 0 0 0 0.476521 0 0 0 1 0"/>
<feBlend mode="normal" in2="BackgroundImageFix" result="effect1_dropShadow_1_2"/>
<feBlend mode="normal" in="SourceGraphic" in2="effect1_dropShadow_1_2" result="shape"/>
</filter>
<filter id="filter4_d_1_2" x="285" y="41" width="242" height="97" filterUnits="userSpaceOnUse" color-interpolation-filters="sRGB">
<feFlood flood-opacity="0" result="BackgroundImageFix"/>
<feColorMatrix in="SourceAlpha" type="matrix" values="0 0 0 0 0 0 0 0 0 0 0 0 0 0 0 0 0 0 127 0" result="hardAlpha"/>
<feMorphology radius="1" operator="dilate" in="SourceAlpha" result="effect1_dropShadow_1_2"/>
<feOffset dx="1" dy="8"/>
<feGaussianBlur stdDeviation="2"/>
<feComposite in2="hardAlpha" operator="out"/>
<feColorMatrix type="matrix" values="0 0 0 0 0.381861 0 0 0 0 0.491667 0 0 0 0 0.476521 0 0 0 1 0"/>
<feBlend mode="normal" in2="BackgroundImageFix" result="effect1_dropShadow_1_2"/>
<feBlend mode="normal" in="SourceGraphic" in2="effect1_dropShadow_1_2" result="shape"/>
</filter>
<filter id="filter5_d_1_2" x="658" y="780" width="132" height="133" filterUnits="userSpaceOnUse" color-interpolation-filters="sRGB">
<feFlood flood-opacity="0" result="BackgroundImageFix"/>
<feColorMatrix in="SourceAlpha" type="matrix" values="0 0 0 0 0 0 0 0 0 0 0 0 0 0 0 0 0 0 127 0" result="hardAlpha"/>
<feMorphology radius="1" operator="dilate" in="SourceAlpha" result="effect1_dropShadow_1_2"/>
<feOffset dx="1" dy="8"/>
<feGaussianBlur stdDeviation="2"/>
<feComposite in2="hardAlpha" operator="out"/>
<feColorMatrix type="matrix" values="0 0 0 0 0.894118 0 0 0 0 0.886275 0 0 0 0 0.909804 0 0 0 1 0"/>
<feBlend mode="normal" in2="BackgroundImageFix" result="effect1_dropShadow_1_2"/>
<feBlend mode="normal" in="SourceGraphic" in2="effect1_dropShadow_1_2" result="shape"/>
</filter>
<filter id="filter6_d_1_2" x="859" y="780" width="303" height="137" filterUnits="userSpaceOnUse" color-interpolation-filters="sRGB">
<feFlood flood-opacity="0" result="BackgroundImageFix"/>
<feColorMatrix in="SourceAlpha" type="matrix" values="0 0 0 0 0 0 0 0 0 0 0 0 0 0 0 0 0 0 127 0" result="hardAlpha"/>
<feMorphology radius="1" operator="dilate" in="SourceAlpha" result="effect1_dropShadow_1_2"/>
<feOffset dx="1" dy="8"/>
<feGaussianBlur stdDeviation="2"/>
<feComposite in2="hardAlpha" operator="out"/>
<feColorMatrix type="matrix" values="0 0 0 0 0.894118 0 0 0 0 0.886275 0 0 0 0 0.909804 0 0 0 1 0"/>
<feBlend mode="normal" in2="BackgroundImageFix" result="effect1_dropShadow_1_2"/>
<feBlend mode="normal" in="SourceGraphic" in2="effect1_dropShadow_1_2" result="shape"/>
</filter>
<filter id="filter7_d_1_2" x="287" y="776" width="303" height="137" filterUnits="userSpaceOnUse" color-interpolation-filters="sRGB">
<feFlood flood-opacity="0" result="BackgroundImageFix"/>
<feColorMatrix in="SourceAlpha" type="matrix" values="0 0 0 0 0 0 0 0 0 0 0 0 0 0 0 0 0 0 127 0" result="hardAlpha"/>
<feMorphology radius="1" operator="dilate" in="SourceAlpha" result="effect1_dropShadow_1_2"/>
<feOffset dx="1" dy="8"/>
<feGaussianBlur stdDeviation="2"/>
<feComposite in2="hardAlpha" operator="out"/>
<feColorMatrix type="matrix" values="0 0 0 0 0.894118 0 0 0 0 0.886275 0 0 0 0 0.909804 0 0 0 1 0"/>
<feBlend mode="normal" in2="BackgroundImageFix" result="effect1_dropShadow_1_2"/>
<feBlend mode="normal" in="SourceGraphic" in2="effect1_dropShadow_1_2" result="shape"/>
</filter>
<filter id="filter8_d_1_2" x="85.3112" y="64.21" width="133.419" height="40.33" filterUnits="userSpaceOnUse" color-interpolation-filters="sRGB">
<feFlood flood-opacity="0" result="BackgroundImageFix"/>
<feColorMatrix in="SourceAlpha" type="matrix" values="0 0 0 0 0 0 0 0 0 0 0 0 0 0 0 0 0 0 127 0" result="hardAlpha"/>
<feOffset dy="6"/>
<feGaussianBlur stdDeviation="2"/>
<feComposite in2="hardAlpha" operator="out"/>
<feColorMatrix type="matrix" values="0 0 0 0 0.626383 0 0 0 0 0.633672 0 0 0 0 0.688333 0 0 0 1 0"/>
<feBlend mode="normal" in2="BackgroundImageFix" result="effect1_dropShadow_1_2"/>
<feBlend mode="normal" in="SourceGraphic" in2="effect1_dropShadow_1_2" result="shape"/>
</filter>
<filter id="filter9_d_1_2" x="301.091" y="63.05" width="211.295" height="42.49" filterUnits="userSpaceOnUse" color-interpolation-filters="sRGB">
<feFlood flood-opacity="0" result="BackgroundImageFix"/>
<feColorMatrix in="SourceAlpha" type="matrix" values="0 0 0 0 0 0 0 0 0 0 0 0 0 0 0 0 0 0 127 0" result="hardAlpha"/>
<feOffset dy="6"/>
<feGaussianBlur stdDeviation="2"/>
<feComposite in2="hardAlpha" operator="out"/>
<feColorMatrix type="matrix" values="0 0 0 0 0.626383 0 0 0 0 0.633672 0 0 0 0 0.688333 0 0 0 1 0"/>
<feBlend mode="normal" in2="BackgroundImageFix" result="effect1_dropShadow_1_2"/>
<feBlend mode="normal" in="SourceGraphic" in2="effect1_dropShadow_1_2" result="shape"/>
</filter>
<filter id="filter10_d_1_2" x="897.505" y="818.29" width="224.601" height="61.92" filterUnits="userSpaceOnUse" color-interpolation-filters="sRGB">
<feFlood flood-opacity="0" result="BackgroundImageFix"/>
<feColorMatrix in="SourceAlpha" type="matrix" values="0 0 0 0 0 0 0 0 0 0 0 0 0 0 0 0 0 0 127 0" result="hardAlpha"/>
<feOffset dy="6"/>
<feGaussianBlur stdDeviation="2"/>
<feComposite in2="hardAlpha" operator="out"/>
<feColorMatrix type="matrix" values="0 0 0 0 0.626383 0 0 0 0 0.633672 0 0 0 0 0.688333 0 0 0 1 0"/>
<feBlend mode="normal" in2="BackgroundImageFix" result="effect1_dropShadow_1_2"/>
<feBlend mode="normal" in="SourceGraphic" in2="effect1_dropShadow_1_2" result="shape"/>
</filter>
<filter id="filter11_d_1_2" x="345.607" y="809.07" width="184.405" height="71.36" filterUnits="userSpaceOnUse" color-interpolation-filters="sRGB">
<feFlood flood-opacity="0" result="BackgroundImageFix"/>
<feColorMatrix in="SourceAlpha" type="matrix" values="0 0 0 0 0 0 0 0 0 0 0 0 0 0 0 0 0 0 127 0" result="hardAlpha"/>
<feOffset dy="6"/>
<feGaussianBlur stdDeviation="2"/>
<feComposite in2="hardAlpha" operator="out"/>
<feColorMatrix type="matrix" values="0 0 0 0 0.38745 0 0 0 0 0.478333 0 0 0 0 0.465798 0 0 0 1 0"/>
<feBlend mode="normal" in2="BackgroundImageFix" result="effect1_dropShadow_1_2"/>
<feBlend mode="normal" in="SourceGraphic" in2="effect1_dropShadow_1_2" result="shape"/>
</filter>
<clipPath id="clip0_1_2">
<rect width="1440" height="1024" fill="white" transform="translate(4)"/>
</clipPath>
</defs>
</svg>
