<svg width="1440" height="1024" viewBox="0 0 1440 1024" fill="none" xmlns="http://www.w3.org/2000/svg">
<rect width="1440" height="1024" fill="#1E1E1E"/>
<g clip-path="url(#clip0_0_1)">
<rect width="1440" height="1024" fill="white"/>
<g filter="url(#filter0_d_0_1)">
<rect x="16" y="17" width="1405" height="114" rx="10" fill="#799692"/>
<rect x="19.5" y="20.5" width="1398" height="107" rx="6.5" stroke="#799692" stroke-width="7"/>
</g>
<g filter="url(#filter1_d_0_1)">
<path d="M585.071 95V49.5H614.961V57.2H593.471V67.98H611.601V75.68H593.471V87.3H614.961V95H585.071ZM636.906 95.84C632.52 95.84 629.02 94.2767 626.406 91.15C623.84 87.9767 622.556 83.7067 622.556 78.34C622.556 72.9733 623.84 68.7267 626.406 65.6C629.02 62.4267 632.52 60.84 636.906 60.84C638.446 60.84 639.963 61.0733 641.456 61.54C642.996 61.96 644.513 62.6367 646.006 63.57V45.3H654.266V95H648.176L647.476 92.2C644.023 94.6267 640.5 95.84 636.906 95.84ZM639.006 88.28C641.386 88.28 643.72 87.65 646.006 86.39V70.29C643.72 69.03 641.386 68.4 639.006 68.4C633.593 68.4 630.886 71.7133 630.886 78.34C630.886 84.9667 633.593 88.28 639.006 88.28ZM676.632 95.84C672.712 95.84 669.702 94.7433 667.602 92.55C665.502 90.31 664.452 87.1367 664.452 83.03V61.68H672.712V81.77C672.712 84.15 673.155 85.83 674.042 86.81C674.975 87.79 676.562 88.28 678.802 88.28C680.108 88.28 681.345 88.1167 682.512 87.79C683.678 87.4633 684.845 86.9967 686.012 86.39V61.68H694.272V95H688.182L687.482 92.13C685.755 93.4367 684.005 94.3933 682.232 95C680.458 95.56 678.592 95.84 676.632 95.84ZM722.657 95.84C716.497 95.84 711.784 93.8333 708.517 89.82C705.297 85.76 703.687 79.9033 703.687 72.25C703.687 64.5967 705.297 58.7633 708.517 54.75C711.784 50.69 716.497 48.66 722.657 48.66C727.791 48.66 732.224 50.3167 735.957 53.63L731.687 60.14C728.981 57.7133 725.994 56.5 722.727 56.5C715.727 56.5 712.227 61.75 712.227 72.25C712.227 82.75 715.727 88 722.727 88C724.594 88 726.321 87.6267 727.907 86.88C729.494 86.1333 731.081 84.9667 732.667 83.38L737.427 89.47C735.281 91.6633 733.041 93.2733 730.707 94.3C728.374 95.3267 725.691 95.84 722.657 95.84ZM745.723 95V45.3H753.983V63.57C756.876 61.75 760.003 60.84 763.363 60.84C767.283 60.84 770.293 61.96 772.393 64.2C774.493 66.3933 775.543 69.5433 775.543 73.65V95H767.283V74.91C767.283 72.53 766.816 70.85 765.883 69.87C764.996 68.89 763.433 68.4 761.193 68.4C759.886 68.4 758.649 68.5633 757.483 68.89C756.363 69.17 755.196 69.6367 753.983 70.29V95H745.723ZM797.138 95.84C793.078 95.84 789.905 94.9067 787.618 93.04C785.378 91.1267 784.258 88.4667 784.258 85.06C784.258 81.7933 785.332 79.2967 787.478 77.57C789.672 75.8433 792.822 74.98 796.928 74.98H807.358V74.35C807.358 72.0167 806.798 70.36 805.678 69.38C804.558 68.3533 802.692 67.84 800.078 67.84C795.972 67.84 792.145 68.8667 788.598 70.92L786.148 64.27C790.488 61.9833 795.435 60.84 800.988 60.84C806.028 60.84 809.715 61.89 812.048 63.99C814.428 66.09 815.618 69.38 815.618 73.86V95H809.528L808.828 92.13C807.008 93.4367 805.142 94.3933 803.228 95C801.362 95.56 799.332 95.84 797.138 95.84ZM798.888 88.84C802.062 88.84 804.885 88.14 807.358 86.74V81.21H797.698C795.925 81.21 794.642 81.5133 793.848 82.12C793.055 82.68 792.658 83.5667 792.658 84.78C792.658 86.1333 793.148 87.16 794.128 87.86C795.155 88.5133 796.742 88.84 798.888 88.84ZM846.664 95.84C838.077 95.84 833.784 91.57 833.784 83.03V69.1H824.054V61.68H833.784V52.23L842.044 48.66V61.68H854.644V69.1H842.044V81.77C842.044 84.15 842.487 85.83 843.374 86.81C844.307 87.79 845.894 88.28 848.134 88.28C850.887 88.28 853.547 87.4867 856.114 85.9L858.214 92.9C854.854 94.86 851.004 95.84 846.664 95.84Z" fill="black"/>
</g>
<rect x="288" y="144" width="863" height="867" rx="20" fill="#AFB1C0"/>
<rect x="315" y="172" width="415" height="183" rx="25" fill="white"/>
<rect x="692" y="399" width="415" height="243" rx="25" fill="white"/>
<rect x="315" y="693" width="415" height="140" rx="25" fill="white"/>
</g>
<defs>
<filter id="filter0_d_0_1" x="12" y="17" width="1413" height="122" filterUnits="userSpaceOnUse" color-interpolation-filters="sRGB">
<feFlood flood-opacity="0" result="BackgroundImageFix"/>
<feColorMatrix in="SourceAlpha" type="matrix" values="0 0 0 0 0 0 0 0 0 0 0 0 0 0 0 0 0 0 127 0" result="hardAlpha"/>
<feOffset dy="4"/>
<feGaussianBlur stdDeviation="2"/>
<feComposite in2="hardAlpha" operator="out"/>
<feColorMatrix type="matrix" values="0 0 0 0 0 0 0 0 0 0 0 0 0 0 0 0 0 0 0.25 0"/>
<feBlend mode="normal" in2="BackgroundImageFix" result="effect1_dropShadow_0_1"/>
<feBlend mode="normal" in="SourceGraphic" in2="effect1_dropShadow_0_1" result="shape"/>
</filter>
<filter id="filter1_d_0_1" x="581.071" y="45.3" width="281.143" height="60.54" filterUnits="userSpaceOnUse" color-interpolation-filters="sRGB">
<feFlood flood-opacity="0" result="BackgroundImageFix"/>
<feColorMatrix in="SourceAlpha" type="matrix" values="0 0 0 0 0 0 0 0 0 0 0 0 0 0 0 0 0 0 127 0" result="hardAlpha"/>
<feOffset dy="6"/>
<feGaussianBlur stdDeviation="2"/>
<feComposite in2="hardAlpha" operator="out"/>
<feColorMatrix type="matrix" values="0 0 0 0 0.38745 0 0 0 0 0.478333 0 0 0 0 0.465798 0 0 0 1 0"/>
<feBlend mode="normal" in2="BackgroundImageFix" result="effect1_dropShadow_0_1"/>
<feBlend mode="normal" in="SourceGraphic" in2="effect1_dropShadow_0_1" result="shape"/>
</filter>
<clipPath id="clip0_0_1">
<rect width="1440" height="1024" fill="white"/>
</clipPath>
</defs>
</svg>
